/* XPM */
static char * barrel_xpm[] = {
"30 30 214 2",
"  	c None",
". 	c #639220",
"+ 	c #659220",
"@ 	c #639120",
"# 	c #618F1F",
"$ 	c #669320",
"% 	c #6B9621",
"& 	c #699521",
"* 	c #618E20",
"= 	c #55841F",
"- 	c #5D8A20",
"; 	c #689421",
"> 	c #6D9920",
", 	c #69961E",
"' 	c #57861C",
") 	c #396D18",
"! 	c #2B6016",
"~ 	c #285D17",
"{ 	c #275C17",
"] 	c #235717",
"^ 	c #205516",
"/ 	c #1F5416",
"( 	c #1A4F15",
"_ 	c #1B5015",
": 	c #285C16",
"< 	c #5F8F1F",
"[ 	c #598B1E",
"} 	c #53871E",
"| 	c #4E841C",
"1 	c #4E841D",
"2 	c #5A8B1F",
"3 	c #669420",
"4 	c #6D9821",
"5 	c #282820",
"6 	c #504848",
"7 	c #583018",
"8 	c #704020",
"9 	c #417419",
"0 	c #3F741B",
"a 	c #41751D",
"b 	c #41761E",
"c 	c #3F741E",
"d 	c #3F731E",
"e 	c #3E731D",
"f 	c #3E721D",
"g 	c #3F721C",
"h 	c #55881E",
"i 	c #49821D",
"j 	c #417E1C",
"k 	c #3B7A1B",
"l 	c #38781A",
"m 	c #367519",
"n 	c #3B771B",
"o 	c #457D1C",
"p 	c #402810",
"q 	c #885028",
"r 	c #985828",
"s 	c #619526",
"t 	c #629627",
"u 	c #629626",
"v 	c #689C28",
"w 	c #72A52A",
"x 	c #75A82A",
"y 	c #70A328",
"z 	c #5D9023",
"A 	c #4C851E",
"B 	c #538E22",
"C 	c #569223",
"D 	c #549121",
"E 	c #4B891C",
"F 	c #3D791A",
"G 	c #4B7F22",
"H 	c #4E8222",
"I 	c #649828",
"J 	c #86B92F",
"K 	c #8CC02E",
"L 	c #84B92A",
"M 	c #6CA024",
"N 	c #4E8B20",
"O 	c #68A128",
"P 	c #74AC2A",
"Q 	c #76AD27",
"R 	c #689F20",
"S 	c #B06830",
"T 	c #C87838",
"U 	c #538622",
"V 	c #81B32C",
"W 	c #8ABD2A",
"X 	c #84B826",
"Y 	c #71A521",
"Z 	c #599424",
"` 	c #75AD2C",
" .	c #82B82E",
"..	c #84B829",
"+.	c #281808",
"@.	c #7BAC29",
"#.	c #84B627",
"$.	c #80B324",
"%.	c #73A620",
"&.	c #70A82A",
"*.	c #85B930",
"=.	c #8BBE30",
"-.	c #201818",
";.	c #75A324",
">.	c #7CAC24",
",.	c #7CAD22",
"'.	c #77AA1F",
").	c #86B930",
"!.	c #96C636",
"~.	c #95C435",
"{.	c #74A120",
"].	c #76A520",
"^.	c #77A81F",
"/.	c #8ABC32",
"(.	c #9ECD3A",
"_.	c #181008",
":.	c #719D21",
"<.	c #729F21",
"[.	c #8ABC31",
"}.	c #6D9921",
"|.	c #6F9A21",
"1.	c #85B72C",
"2.	c #6C9721",
"3.	c #70A324",
"4.	c #649120",
"5.	c #628F20",
"6.	c #58871E",
"7.	c #66921F",
"8.	c #4F7F1D",
"9.	c #679420",
"0.	c #45771B",
"a.	c #65931F",
"b.	c #3D7019",
"c.	c #41741C",
"d.	c #5A891F",
"e.	c #669220",
"f.	c #5E8B1E",
"g.	c #54821D",
"h.	c #4A7A1C",
"i.	c #608E1F",
"j.	c #787068",
"k.	c #6A9620",
"l.	c #63901F",
"m.	c #507E1D",
"n.	c #43731B",
"o.	c #5B891F",
"p.	c #6F9921",
"q.	c #699620",
"r.	c #61901F",
"s.	c #4E7D1D",
"t.	c #346618",
"u.	c #53811D",
"v.	c #618E1F",
"w.	c #679320",
"x.	c #5E8C1F",
"y.	c #608E20",
"z.	c #56851E",
"A.	c #49791C",
"B.	c #4B7D22",
"C.	c #48791E",
"D.	c #5D8B1F",
"E.	c #51801E",
"F.	c #4D7F1E",
"G.	c #669120",
"H.	c #5F8B1F",
"I.	c #54811D",
"J.	c #6E9E2F",
"K.	c #568727",
"L.	c #497B22",
"M.	c #497A1E",
"N.	c #507F1E",
"O.	c #4A7C1E",
"P.	c #367319",
"Q.	c #326F19",
"R.	c #3B741C",
"S.	c #50821E",
"T.	c #6A9520",
"U.	c #5E8A1E",
"V.	c #87B536",
"W.	c #7BAB33",
"X.	c #6B9B2E",
"Y.	c #538424",
"Z.	c #45751D",
"`.	c #5A881F",
" +	c #5D8B20",
".+	c #57871F",
"++	c #4B821D",
"@+	c #407A1C",
"#+	c #36711A",
"$+	c #447C1C",
"%+	c #67951F",
"&+	c #709B21",
"*+	c #628D20",
"=+	c #91C039",
"-+	c #91BF39",
";+	c #82B034",
">+	c #5F9028",
",+	c #43751D",
"'+	c #4C7C1C",
")+	c #5D8C1F",
"!+	c #5F8D1F",
"~+	c #4E7F1D",
"{+	c #356C1A",
"]+	c #4B7F1D",
"^+	c #58871F",
"/+	c #659020",
"(+	c #63911F",
"_+	c #5A8B1E",
":+	c #4D831D",
"<+	c #3A751B",
"[+	c #447C1B",
"}+	c #709C21",
"|+	c #6E9921",
"1+	c #638F20",
". + @ # # # @ $ % % $ & & * = - ; > , ' ) ! ~ { ] ^ / ( _ : ",
"< [ } | 1 1 } 2 3 4 5 6 6 7 8 8 8 6 6 5 9 0 a b c d c e f g ",
"h i j k l m n o 6 5 p p 8 q 8 8 8 q r p 6 5 s t u v w x y z ",
"A B C D E F 5 5 5 7 q 8 p 7 p p 7 7 6 6 6 8 6 G H I J K L M ",
"N O P Q R 6 5 p 7 8 7 5 5 5 8 S T S 8 8 8 7 8 6 5 U V W X Y ",
"Z `  ...6 5 p 7 7 p 5 7 8 q r q p p +.p r T 8 6 6 5 @.#.$.%.",
"&.*.=.6 -.p p p 5 5 8 S p 8 S T T r 8 q p 8 S r 7 6 ;.>.,.'.",
").!.~.5 5 p p 5 5 8 S T T T T T 8 r T T T 8 +.q 7 7 5 {.].^.",
"/.(.-.-.8 7 +.5 7 S T T T T T 8 q T T T T T r +._.8 p 5 :.<.",
"[.-._.+.8 7 +.p 7 S T T T T 8 8 T T T T T S p r +.q q 6 }.|.",
"1.-.-.+.+.+.+.r q T T T T 8 8 T T T T T T 8 S T r p T 8 5 2.",
"3.-._.+._.-.p r S T T T q 8 T T T T T T 8 q T T T 8 8 r 6 4.",
"-._._._._.-.8 T T T T S 7 T T T T T T q 8 T T T T S +.S 7 = ",
"-._._._._.-.q T T T S p S T T T T T r 7 T T T T T q +.p 7 5 ",
"-._._._._._.r T T T 8 r T T T T T S 7 T T T T T S q 8 p 8 6 ",
"_._.+.+._._.p T T r 8 T T T T T S p S T T T T T q r q 7 7 5 ",
"-.-.p 7 _.7 8 T S 7 T T T T T T 7 r T T T T T q q T r q 8 5 ",
"-._._._._._.q T q T T T T T T 8 q T T T T T T 8 T T 8 S 7 5.",
"-._._._._.5 q T 8 T T T T T q 8 T T T T T T 7 S T T 8 S p 6.",
"7.-._._._.-.p S S T T T T r p T T T T T T r 8 T T T 7 r 5 8.",
"9.-._._._._.6 S T T T T S 7 T T T T T T q 8 T T T q 7 7 5 0.",
"a.-._._._._._.6 8 S T T 7 S T T T T T r 8 T T T T 7 q 5 b.c.",
"d.e.-._._._._._._.q T 8 r T T T T T q 8 T T T T S q 6 f.g.h.",
"8.i.+ -._.+.p _.j.q S q T T T S T q 8 T S T T T S 6 6 k.l.m.",
"n.o.+ 5._.+.+._._.j.q S T T T T q q T T T T S r 6 5 p.q.r.s.",
"t.u.v.w.x._._._._.-.j.j.S S r q S T T S 8 q q 6 5 }.4 y.z.A.",
"B.C.A.g.D.E.-._._._._.5 j.p p S T S T r p 6 6 5 F.y.% G.H.I.",
"J.K.L.M.E.N.O.-.-._._._._.5 6 _.j.j.j.6 5 -.P.Q.R.S.& 4 T.U.",
"V.W.X.Y.Z.s.`. +.+-._._.+.+._._._._.-.-.5 5 ++@+#+$+%+&+4 *+",
"=+-+;+>+,+'+)+@ !+~+{+-.-.-.-._._.-.]+^+/+(+_+:+<+[+%+}+|+1+"};
