/* XPM */
static char * collectable_xpm[] = {
"30 30 614 2",
"  	c None",
". 	c #639220",
"+ 	c #659220",
"@ 	c #639120",
"# 	c #618F1F",
"$ 	c #669320",
"% 	c #6B9621",
"& 	c #699521",
"* 	c #618E20",
"= 	c #55841F",
"- 	c #5D8A20",
"; 	c #689421",
"> 	c #6D9920",
", 	c #69961E",
"' 	c #57861C",
") 	c #396D18",
"! 	c #2B6016",
"~ 	c #285D17",
"{ 	c #275C17",
"] 	c #235717",
"^ 	c #205516",
"/ 	c #1F5416",
"( 	c #1A4F15",
"_ 	c #1B5015",
": 	c #285C16",
"< 	c #5F8F1F",
"[ 	c #598B1E",
"} 	c #53871E",
"| 	c #4E841C",
"1 	c #4E841D",
"2 	c #5A8B1F",
"3 	c #669420",
"4 	c #6D9821",
"5 	c #6B9721",
"6 	c #659120",
"7 	c #5D8C1E",
"8 	c #5A8C1F",
"9 	c #5B8B1E",
"0 	c #59871F",
"a 	c #53821E",
"b 	c #4F7E1C",
"c 	c #48791A",
"d 	c #417419",
"e 	c #3F741B",
"f 	c #41751D",
"g 	c #41761E",
"h 	c #3F741E",
"i 	c #3F731E",
"j 	c #3E731D",
"k 	c #3E721D",
"l 	c #3F721C",
"m 	c #55881E",
"n 	c #49821D",
"o 	c #417E1C",
"p 	c #3B7A1B",
"q 	c #38781A",
"r 	c #367519",
"s 	c #3B771B",
"t 	c #457D1C",
"u 	c #6B9620",
"v 	c #5B881F",
"w 	c #55831E",
"x 	c #598A1D",
"y 	c #699C1F",
"z 	c #62941F",
"A 	c #4D7F1D",
"B 	c #3B6D19",
"C 	c #356818",
"D 	c #396D19",
"E 	c #4F831C",
"F 	c #5D9121",
"G 	c #619526",
"H 	c #629627",
"I 	c #629626",
"J 	c #689C28",
"K 	c #72A52A",
"L 	c #75A82A",
"M 	c #70A328",
"N 	c #5D9023",
"O 	c #4C851E",
"P 	c #538E22",
"Q 	c #569223",
"R 	c #549121",
"S 	c #4B891C",
"T 	c #3D791A",
"U 	c #37711A",
"V 	c #3C731B",
"W 	c #4E801E",
"X 	c #608F20",
"Y 	c #679420",
"Z 	c #54841E",
"` 	c #578A1D",
" .	c #72A51F",
"..	c #6FA21F",
"+.	c #598B1D",
"@.	c #42751A",
"#.	c #376B19",
"$.	c #336718",
"%.	c #3F731A",
"&.	c #477B1E",
"*.	c #4A7E21",
"=.	c #4B7F22",
"-.	c #4E8222",
";.	c #649828",
">.	c #86B92F",
",.	c #8CC02E",
"'.	c #84B92A",
").	c #6CA024",
"!.	c #4E8B20",
"~.	c #68A128",
"{.	c #74AC2A",
"].	c #76AD27",
"^.	c #689F20",
"/.	c #4F851D",
"(.	c #3F741C",
"_.	c #3D711C",
":.	c #46781D",
"<.	c #54851F",
"[.	c #5E8E1F",
"}.	c #4F811D",
"|.	c #4B7D1D",
"1.	c #578A1E",
"2.	c #74A720",
"3.	c #7AAD20",
"4.	c #6A9C1E",
"5.	c #53851D",
"6.	c #45761C",
"7.	c #36681A",
"8.	c #2F6318",
"9.	c #2E6218",
"0.	c #2F631A",
"a.	c #33671A",
"b.	c #538622",
"c.	c #81B32C",
"d.	c #8ABD2A",
"e.	c #84B826",
"f.	c #71A521",
"g.	c #599424",
"h.	c #75AD2C",
"i.	c #82B82E",
"j.	c #84B829",
"k.	c #74A721",
"l.	c #43761D",
"m.	c #3E711D",
"n.	c #42751C",
"o.	c #4A7E1D",
"p.	c #50861E",
"q.	c #487C1D",
"r.	c #487B1D",
"s.	c #56891E",
"t.	c #75A820",
"u.	c #7EB120",
"v.	c #6FA31F",
"w.	c #598C1E",
"x.	c #3C6D1B",
"y.	c #336518",
"z.	c #2F6218",
"A.	c #336719",
"B.	c #51831F",
"C.	c #7BAC29",
"D.	c #84B627",
"E.	c #80B324",
"F.	c #73A620",
"G.	c #70A82A",
"H.	c #85B930",
"I.	c #8BBE30",
"J.	c #87B92B",
"K.	c #74A622",
"L.	c #47781C",
"M.	c #41731C",
"N.	c #40741D",
"O.	c #3D741B",
"P.	c #39751A",
"Q.	c #39721A",
"R.	c #3F751B",
"S.	c #53861C",
"T.	c #73A71F",
"U.	c #7DB120",
"V.	c #70A41F",
"W.	c #5A8D1E",
"X.	c #47781D",
"Y.	c #4A7B1B",
"Z.	c #4B7B1C",
"`.	c #49791C",
" +	c #4A791C",
".+	c #5F8E20",
"++	c #75A324",
"@+	c #7CAC24",
"#+	c #7CAD22",
"$+	c #77AA1F",
"%+	c #86B930",
"&+	c #96C636",
"*+	c #95C435",
"=+	c #84B52D",
"-+	c #6C9D22",
";+	c #5A8B1E",
">+	c #51811E",
",+	c #4B7C1E",
"'+	c #376F1A",
")+	c #2C6B19",
"!+	c #2C6A19",
"~+	c #336F1A",
"{+	c #403000",
"]+	c #6DA01F",
"^+	c #7BAD20",
"/+	c #70A21F",
"(+	c #50821D",
"_+	c #50801D",
":+	c #5E8C1F",
"<+	c #5B8D1E",
"[+	c #51861D",
"}+	c #63911F",
"|+	c #6D9921",
"1+	c #709C21",
"2+	c #74A120",
"3+	c #76A520",
"4+	c #77A81F",
"5+	c #8ABC32",
"6+	c #9ECD3A",
"7+	c #9AC839",
"8+	c #7FAE2F",
"9+	c #619222",
"0+	c #5C8B1E",
"a+	c #59881F",
"b+	c #4A7B1E",
"c+	c #356E1A",
"d+	c #2A6919",
"e+	c #2B6B19",
"f+	c #D89800",
"g+	c #77A720",
"h+	c #6EA11E",
"i+	c #598C1D",
"j+	c #51811D",
"k+	c #5B8C1F",
"l+	c #4D841C",
"m+	c #37751A",
"n+	c #3B781B",
"o+	c #6F9921",
"p+	c #709B21",
"q+	c #719D21",
"r+	c #729F21",
"s+	c #8ABC31",
"t+	c #A1CF3B",
"u+	c #9CCA3B",
"v+	c #7BAB30",
"w+	c #598B22",
"x+	c #5B8A1F",
"y+	c #649120",
"z+	c #50801E",
"A+	c #366F1B",
"B+	c #276819",
"C+	c #A86838",
"D+	c #5C8E1E",
"E+	c #71A020",
"F+	c #6D9E1F",
"G+	c #54861E",
"H+	c #55841D",
"I+	c #447E1B",
"J+	c #296C18",
"K+	c #2C6E19",
"L+	c #4C841C",
"M+	c #62921F",
"N+	c #6F9A21",
"O+	c #85B72C",
"P+	c #9FCD38",
"Q+	c #73A72E",
"R+	c #4E8421",
"S+	c #679520",
"T+	c #6A9521",
"U+	c #457A1B",
"V+	c #704800",
"W+	c #659320",
"X+	c #6A9920",
"Y+	c #649320",
"Z+	c #618F20",
"`+	c #618E1E",
" @	c #5F8E1E",
".@	c #437D1A",
"+@	c #246A16",
"@@	c #216816",
"#@	c #367419",
"$@	c #487E1B",
"%@	c #608E20",
"&@	c #6C9721",
"*@	c #70A324",
"=@	c #8FC031",
"-@	c #8DBE32",
";@	c #669E29",
">@	c #407B1D",
",@	c #699620",
"'@	c #719B21",
")@	c #669220",
"!@	c #477E1C",
"~@	c #F8D808",
"{@	c #477A1D",
"]@	c #6A9621",
"^@	c #6C9821",
"/@	c #659420",
"(@	c #4C831C",
"_@	c #337418",
":@	c #2A6D17",
"<@	c #2A6C18",
"[@	c #326D1A",
"}@	c #42751D",
"|@	c #51811F",
"1@	c #5A881F",
"2@	c #4B7F1C",
"3@	c #6DA023",
"4@	c #71A524",
"5@	c #568B1F",
"6@	c #396F1A",
"7@	c #4D7E1B",
"8@	c #6A9620",
"9@	c #729C21",
"0@	c #48811C",
"a@	c #6E9921",
"b@	c #6F9B21",
"c@	c #61911F",
"d@	c #56881E",
"e@	c #4E811D",
"f@	c #42781B",
"g@	c #3D721B",
"h@	c #41731D",
"i@	c #46771D",
"j@	c #43761A",
"k@	c #52851B",
"l@	c #54881C",
"m@	c #487D1A",
"n@	c #41741A",
"o@	c #56841D",
"p@	c #6C9720",
"q@	c #719C21",
"r@	c #729E21",
"s@	c #739F21",
"t@	c #6B9720",
"u@	c #5C8A1F",
"v@	c #4D7E1D",
"w@	c #4F7F1D",
"x@	c #4E7E1D",
"y@	c #487A1E",
"z@	c #47791E",
"A@	c #4C7C1E",
"B@	c #46781A",
"C@	c #447819",
"D@	c #437719",
"E@	c #4B7B1B",
"F@	c #5E8B1F",
"G@	c #74A121",
"H@	c #75A421",
"I@	c #74A321",
"J@	c #699720",
"K@	c #55841E",
"L@	c #42741A",
"M@	c #41731A",
"N@	c #59871E",
"O@	c #58871E",
"P@	c #4E7F1E",
"Q@	c #4A7B1D",
"R@	c #51801C",
"S@	c #3F7119",
"T@	c #3B6E19",
"U@	c #46761A",
"V@	c #5A871E",
"W@	c #689320",
"X@	c #6F9C21",
"Y@	c #76A620",
"Z@	c #79A91F",
"`@	c #78A81F",
" #	c #6C9A1F",
".#	c #52831D",
"+#	c #3C6F1B",
"@#	c #3C6E1B",
"##	c #5D8D1E",
"$#	c #53821F",
"%#	c #5E8B1E",
"&#	c #53821C",
"*#	c #507F1C",
"=#	c #59861E",
"-#	c #679320",
";#	c #75A21F",
">#	c #78A820",
",#	c #7BAD1F",
"'#	c #7CAF1F",
")#	c #76A820",
"!#	c #699C23",
"~#	c #5C9025",
"{#	c #538923",
"]#	c #51871D",
"^#	c #5D8B20",
"/#	c #64911F",
"(#	c #69941F",
"_#	c #699520",
":#	c #6E9821",
"<#	c #76A51F",
"[#	c #76A421",
"}#	c #78A821",
"|#	c #7EB122",
"1#	c #81B427",
"2#	c #80B42C",
"3#	c #73A92A",
"4#	c #549021",
"5#	c #48831B",
"6#	c #558A1E",
"7#	c #619020",
"8#	c #649220",
"9#	c #628F20",
"0#	c #66921F",
"a#	c #6E9A21",
"b#	c #77A621",
"c#	c #77A821",
"d#	c #7DB122",
"e#	c #84B828",
"f#	c #86BA2E",
"g#	c #7EB32C",
"h#	c #67A022",
"i#	c #4F8B1C",
"j#	c #53871D",
"k#	c #689420",
"l#	c #709D21",
"m#	c #79A820",
"n#	c #7DB227",
"o#	c #7DB22C",
"p#	c #79AF2A",
"q#	c #6EA522",
"r#	c #56901C",
"s#	c #3F7C1A",
"t#	c #49801B",
"u#	c #51831C",
"v#	c #709A21",
"w#	c #66931F",
"x#	c #5E8C1E",
"y#	c #5A881E",
"z#	c #6A9721",
"A#	c #73A021",
"B#	c #77A620",
"C#	c #77A721",
"D#	c #699F23",
"E#	c #609925",
"F#	c #619A24",
"G#	c #6B9F21",
"H#	c #61961D",
"I#	c #48801B",
"J#	c #43781A",
"K#	c #44761A",
"L#	c #45771B",
"M#	c #65931F",
"N#	c #4B7C1D",
"O#	c #43761C",
"P#	c #477A1C",
"Q#	c #639020",
"R#	c #79AB1F",
"S#	c #78A91F",
"T#	c #51881D",
"U#	c #3C7A1C",
"V#	c #407D1C",
"W#	c #5D901F",
"X#	c #6B9920",
"Y#	c #62911F",
"Z#	c #487A1B",
"`#	c #3D7019",
" $	c #41741C",
".$	c #5A891F",
"+$	c #5B891F",
"@$	c #44781C",
"#$	c #357019",
"$$	c #40791A",
"%$	c #5B8C1E",
"&$	c #6D9721",
"*$	c #7BAC1F",
"=$	c #76A720",
"-$	c #5E8F1F",
";$	c #5A891E",
">$	c #629120",
",$	c #5C8D1F",
"'$	c #52871E",
")$	c #54881E",
"!$	c #54821D",
"~$	c #4A7A1C",
"{$	c #608E1F",
"]$	c #5D8A1F",
"^$	c #326E19",
"/$	c #2E6D18",
"($	c #387519",
"_$	c #77A520",
":$	c #7AAA1F",
"<$	c #7CAD1F",
"[$	c #78AB20",
"}$	c #62941E",
"|$	c #4E7F1D",
"1$	c #4F7F1E",
"2$	c #608D1F",
"3$	c #65921F",
"4$	c #63901F",
"5$	c #507E1D",
"6$	c #43731B",
"7$	c #306E19",
"8$	c #35721A",
"9$	c #477F1C",
"0$	c #5E8F1E",
"a$	c #6F9B20",
"b$	c #75A320",
"c$	c #78A920",
"d$	c #77A820",
"e$	c #66961F",
"f$	c #53831E",
"g$	c #44751D",
"h$	c #497A1E",
"i$	c #56851E",
"j$	c #5F8C1F",
"k$	c #628E20",
"l$	c #659020",
"m$	c #61901F",
"n$	c #4E7D1D",
"o$	c #346618",
"p$	c #53811D",
"q$	c #618E1F",
"r$	c #4A7C1D",
"s$	c #3A701C",
"t$	c #346D1B",
"u$	c #36721A",
"v$	c #4A811C",
"w$	c #6F9C20",
"x$	c #709D20",
"y$	c #719E21",
"z$	c #6C9921",
"A$	c #608C20",
"B$	c #51801E",
"C$	c #4A7A1D",
"D$	c #45771D",
"E$	c #48791D",
"F$	c #497A1C",
"G$	c #52811E",
"H$	c #4B7D22",
"I$	c #48791E",
"J$	c #5D8B1F",
"K$	c #40741C",
"L$	c #386F1B",
"M$	c #356F1A",
"N$	c #3B7519",
"O$	c #4A811B",
"P$	c #5C8D1E",
"Q$	c #5C8A1E",
"R$	c #57861F",
"S$	c #52821E",
"T$	c #43781B",
"U$	c #36701A",
"V$	c #4D7F1E",
"W$	c #669120",
"X$	c #5F8B1F",
"Y$	c #54811D",
"Z$	c #6E9E2F",
"`$	c #568727",
" %	c #497B22",
".%	c #507F1E",
"+%	c #4A7C1E",
"@%	c #44791D",
"#%	c #3A741A",
"$%	c #337019",
"%%	c #447A1C",
"&%	c #58881E",
"*%	c #5D8E1E",
"=%	c #5E8D1F",
"-%	c #5F8E1F",
";%	c #5F8D20",
">%	c #4B801D",
",%	c #367319",
"'%	c #326F19",
")%	c #3B741C",
"!%	c #50821E",
"~%	c #6A9520",
"{%	c #5E8A1E",
"]%	c #87B536",
"^%	c #7BAB33",
"/%	c #6B9B2E",
"(%	c #538424",
"_%	c #45751D",
":%	c #57871F",
"<%	c #487C1C",
"[%	c #346D19",
"}%	c #336919",
"|%	c #356919",
"1%	c #366C18",
"2%	c #3A7419",
"3%	c #3C7719",
"4%	c #417A1B",
"5%	c #487E1D",
"6%	c #4B821D",
"7%	c #407A1C",
"8%	c #36711A",
"9%	c #447C1C",
"0%	c #67951F",
"a%	c #628D20",
"b%	c #91C039",
"c%	c #91BF39",
"d%	c #82B034",
"e%	c #5F9028",
"f%	c #43751D",
"g%	c #4C7C1C",
"h%	c #5D8C1F",
"i%	c #5F8D1F",
"j%	c #356C1A",
"k%	c #2E6419",
"l%	c #2D6319",
"m%	c #2D6618",
"n%	c #316F19",
"o%	c #337218",
"p%	c #397619",
"q%	c #427A1B",
"r%	c #4B7F1D",
"s%	c #58871F",
"t%	c #4D831D",
"u%	c #3A751B",
"v%	c #447C1B",
"w%	c #638F20",
". + @ # # # @ $ % % $ & & * = - ; > , ' ) ! ~ { ] ^ / ( _ : ",
"< [ } | 1 1 } 2 3 4 5 6 * 7 8 9 0 a b c d e f g h i h j k l ",
"m n o p q r s t 9 u u v w x y z A B C D E F G H I J K L M N ",
"O P Q R S T U V W X Y Z A `  ...+.@.#.$.%.&.*.=.-.;.>.,.'.).",
"!.~.{.].^./.(._.:.<.[.}.|.1.2.3.4.5.6.7.8.9.0.0.a.b.c.d.e.f.",
"g.h.i.j.k.1.l.m.n.o.p.q.r.s.t.u.v.w.|.x.y.z.z.z.A.B.C.D.E.F.",
"G.H.I.J.K.+.L.M.N.O.P.Q.R.S.T.U.V.W.W X.Y.Z.`. +b .+++@+#+$+",
"%+&+*+=+-+;+>+,+l.'+)+!+~+{+]+^+/+W.(+_+:+<+[+} }+|+1+2+3+4+",
"5+6+7+8+9+0+:+a+b+_.c+d+e+f+{+g+h+i+(+j+k+l+m+n+W.> o+p+q+r+",
"s+t+u+v+w+x+y+* z+f A+B+C+f+D+E+F+D+G+H+;+I+J+K+L+M+; 5 |+N+",
"O+P+7+Q+R+m S+T+x+U+!+V+f+f+}.W+X+Y+Z+`+ @.@+@@@#@$@= %@$ &@",
"*@=@-@;@>@E ,@'@)@!@{+f+f+~@{@:+]@4 4 ^@/@(@_@:@<@[@}@|@1@y+",
"2@3@4@5@6@7@8@9@Y 0@V+f+f+~@{+; a@N+N+b@^@c@d@e@f@g@h@i@b+= ",
"j@k@l@m@n@o@p@q@8@{+V+f+f+~@C+|+b@r@s@r+t@u@b Z.v@w@x@y@z@A@",
"B@C@C@D@E@F@4 '@t@{+V+f+f+~@C+N+q+G@H@I@J@K@L@M@w@N@O@P@b+Q@",
"R@S@T@U@V@W@a@1+X@{+V+f+f+f+~@N+r+Y@Z@`@ #.#+#@#A ##@ 1@$#x@",
"%#&#*#=#-#a@p+r@;#{+{+C+f+f+~@C+s@>#,#'#)#!#~#{#n ]#3 )@Z+^#",
"/#(#_#]@:#N+1+r+<#{+{+V+C+f+~@~@C+[#}#^+|#1#2#3#4#5#6#7#8#9#",
"0#o+N+a#:#|+a#1+G@b#{+{+V+C+f+~@~@f+V+c#d#e#f#g#h#i#I+j#9 O@",
"0#N+N+^@_#k#]@^@l#H@m#{+{+V+C+f+~@~@~@~@C+n#o#p#q#r#s#t#u#w@",
"Y v#a@w#x#y#- * z#A#B#C#{+{+V+V+f+~@~@~@f+D#E#F#G#H#I#J#K#L#",
"M#|+% ^#N#O#P#(+Q#N+r@g+R#S#{+{+V+V+V+f+V+T#U#V#W#X#Y#Z#`# $",
".$)@W@+$@$c+#$$$%$&$q@g+*$^+=$-$A {+{+;$>$,$'$)$8#a@p@%#!$~$",
"w@{$+ ]$P#^$/$($j#S+1+_$:$<$[$}$|$6.i@1$2$+ 3$$ 5 N+o+8@4$5$",
"6$+$+ 9#}.Q.7$8$9$0$a$b$B#c$d$e$f$X.g$h$i$j$k$l$% N+o+,@m$n$",
"o$p$q$-#:+r$s$t$u$v$,@w$x$r@y$z$A$B$C$D$E$F$N#G$k$|+4 %@i$`.",
"H$I$`.!$J$B$K$L$M$N$O$P$W+^@a#a@k#{$Q$R$S$T$U$Q.V$%@% W$X$Y$",
"Z$`$ %h$B$.%+%&.@%#%$%%%(+&%P$*%*%=%-%9#;%>%,%'%)%!%& 4 ~%{%",
"]%^%/%(%_%n$1@^#:%<%[%}%|%1%2%3%4%5%!%u@6 k+6%7%8%9%0%p+4 a%",
"b%c%d%e%f%g%h%@ i%|$j%k%l%m%n%o%p%q%r%s%l$}+;+t%u%v%0%1+a@w%"};
