/* XPM */
static char * exit_xpm[] = {
"30 30 731 2",
"  	c None",
". 	c #639220",
"+ 	c #659220",
"@ 	c #639120",
"# 	c #618F1F",
"$ 	c #669320",
"% 	c #6B9621",
"& 	c #699521",
"* 	c #618E20",
"= 	c #55841F",
"- 	c #5D8A20",
"; 	c #689421",
"> 	c #6D9920",
", 	c #69961E",
"' 	c #57861C",
") 	c #396D18",
"! 	c #2B6016",
"~ 	c #285D17",
"{ 	c #275C17",
"] 	c #235717",
"^ 	c #205516",
"/ 	c #1F5416",
"( 	c #1A4F15",
"_ 	c #1B5015",
": 	c #285C16",
"< 	c #5F8F1F",
"[ 	c #598B1E",
"} 	c #53871E",
"| 	c #4E841C",
"1 	c #4E841D",
"2 	c #5A8B1F",
"3 	c #669420",
"4 	c #6D9821",
"5 	c #6B9721",
"6 	c #659120",
"7 	c #371D00",
"8 	c #954600",
"9 	c #974800",
"0 	c #5B8B1E",
"a 	c #59871F",
"b 	c #53821E",
"c 	c #4F7E1C",
"d 	c #48791A",
"e 	c #417419",
"f 	c #3F741B",
"g 	c #502700",
"h 	c #7C3A00",
"i 	c #A95100",
"j 	c #3F731E",
"k 	c #3F741E",
"l 	c #3E731D",
"m 	c #3E721D",
"n 	c #3F721C",
"o 	c #55881E",
"p 	c #49821D",
"q 	c #417E1C",
"r 	c #3B7A1B",
"s 	c #38781A",
"t 	c #367519",
"u 	c #3B771B",
"v 	c #457D1C",
"w 	c #6B9620",
"x 	c #5B881F",
"y 	c #1E1300",
"z 	c #A04B00",
"A 	c #AD5200",
"B 	c #552B00",
"C 	c #4D7F1D",
"D 	c #562B00",
"E 	c #8D4200",
"F 	c #AA5100",
"G 	c #AE5500",
"H 	c #C86D00",
"I 	c #A85100",
"J 	c #CD6F00",
"K 	c #72A52A",
"L 	c #75A82A",
"M 	c #70A328",
"N 	c #5D9023",
"O 	c #4C851E",
"P 	c #538E22",
"Q 	c #569223",
"R 	c #549121",
"S 	c #4B891C",
"T 	c #3D791A",
"U 	c #37711A",
"V 	c #3C731B",
"W 	c #4E801E",
"X 	c #608F20",
"Y 	c #6D3500",
"Z 	c #6A3600",
"` 	c #944500",
" .	c #9C4B00",
"..	c #AC5300",
"+.	c #B05500",
"@.	c #BF6100",
"#.	c #DE780D",
"$.	c #B0530A",
"%.	c #AD5103",
"&.	c #975319",
"*.	c #93521A",
"=.	c #A0581A",
"-.	c #AD6015",
";.	c #FF9088",
">.	c #FA7F75",
",.	c #86B92F",
"'.	c #8CC02E",
").	c #84B92A",
"!.	c #6CA024",
"~.	c #4E8B20",
"{.	c #68A128",
"].	c #74AC2A",
"^.	c #A85000",
"/.	c #689F20",
"(.	c #823E00",
"_.	c #7D3C00",
":.	c #874000",
"<.	c #BA5B00",
"[.	c #BE6000",
"}.	c #BF5C00",
"|.	c #BF5D00",
"1.	c #BC6000",
"2.	c #CF6F00",
"3.	c #D77608",
"4.	c #E2864C",
"5.	c #D3683A",
"6.	c #F9B6AB",
"7.	c #E79B80",
"8.	c #FFEAEA",
"9.	c #FFF3F1",
"0.	c #FDEFEB",
"a.	c #FFC2BF",
"b.	c #FFB3A9",
"c.	c #538622",
"d.	c #81B32C",
"e.	c #8ABD2A",
"f.	c #84B826",
"g.	c #71A521",
"h.	c #599424",
"i.	c #75AD2C",
"j.	c #82B82E",
"k.	c #A64E00",
"l.	c #C86A00",
"m.	c #F17B67",
"n.	c #EF755C",
"o.	c #EE7159",
"p.	c #F5BAA6",
"q.	c #CD7E44",
"r.	c #EDC8B1",
"s.	c #F4C9B3",
"t.	c #CD612C",
"u.	c #B26113",
"v.	c #FFBEBD",
"w.	c #924102",
"x.	c #FFD0CC",
"y.	c #C79A7B",
"z.	c #B36017",
"A.	c #A36632",
"B.	c #FFC4C1",
"C.	c #C05D1A",
"D.	c #98480D",
"E.	c #7C3C07",
"F.	c #7BAC29",
"G.	c #84B627",
"H.	c #80B324",
"I.	c #73A620",
"J.	c #70A82A",
"K.	c #85B930",
"L.	c #8BBE30",
"M.	c #A54E00",
"N.	c #A24C00",
"O.	c #F48A77",
"P.	c #F8E9E2",
"Q.	c #F9DBD3",
"R.	c #FAD4CB",
"S.	c #BF7A4F",
"T.	c #582000",
"U.	c #FFD7D1",
"V.	c #D66C40",
"W.	c #9F4800",
"X.	c #FFB5AF",
"Y.	c #CC8457",
"Z.	c #7A3300",
"`.	c #FFEDE9",
" +	c #AB876C",
".+	c #5C2D00",
"++	c #56371B",
"@+	c #D3A281",
"#+	c #623100",
"$+	c #422100",
"%+	c #613000",
"&+	c #603000",
"*+	c #7CAC24",
"=+	c #7CAD22",
"-+	c #77AA1F",
";+	c #86B930",
">+	c #96C636",
",+	c #95C435",
"'+	c #AF5300",
")+	c #B05400",
"!+	c #A25A14",
"~+	c #FFC5C0",
"{+	c #CD623A",
"]+	c #A74F2A",
"^+	c #783700",
"/+	c #622F00",
"(+	c #BA6549",
"_+	c #FFD7D5",
":+	c #C25B35",
"<+	c #F6E2D9",
"[+	c #8B4719",
"}+	c #421B00",
"|+	c #FFF6F4",
"1+	c #AC876B",
"2+	c #5E2E00",
"3+	c #6D3706",
"4+	c #EFBAA7",
"5+	c #74481E",
"6+	c #5E2F00",
"7+	c #743800",
"8+	c #74A120",
"9+	c #76A520",
"0+	c #77A81F",
"a+	c #8ABC32",
"b+	c #9ECD3A",
"c+	c #9AC839",
"d+	c #653200",
"e+	c #6D3600",
"f+	c #4E2700",
"g+	c #5D3B1C",
"h+	c #BE947A",
"i+	c #492200",
"j+	c #402000",
"k+	c #592C00",
"l+	c #5B2E00",
"m+	c #5F2F00",
"n+	c #BA9881",
"o+	c #FCDCD5",
"p+	c #EB9A85",
"q+	c #6C3100",
"r+	c #5D2E00",
"s+	c #A66835",
"t+	c #B29178",
"u+	c #633000",
"v+	c #CB9B79",
"w+	c #74471D",
"x+	c #709B21",
"y+	c #719D21",
"z+	c #729F21",
"A+	c #8ABC31",
"B+	c #A1CF3B",
"C+	c #9CCA3B",
"D+	c #7BAB30",
"E+	c #3A1F00",
"F+	c #74461A",
"G+	c #FFFBFA",
"H+	c #835A33",
"I+	c #AA5F29",
"J+	c #D87352",
"K+	c #663200",
"L+	c #5F3000",
"M+	c #712F00",
"N+	c #ECD3C5",
"O+	c #EB7C66",
"P+	c #6C3200",
"Q+	c #5D2F00",
"R+	c #9A561C",
"S+	c #B3927A",
"T+	c #C99B7A",
"U+	c #73471D",
"V+	c #713600",
"W+	c #823D00",
"X+	c #6D9921",
"Y+	c #6F9A21",
"Z+	c #85B72C",
"`+	c #9FCD38",
" @	c #73A72E",
".@	c #4E8421",
"+@	c #6B3B0C",
"@@	c #E1BFAA",
"#@	c #FFD5CD",
"$@	c #FFCBC1",
"%@	c #C87E57",
"&@	c #6D3607",
"*@	c #AA6F52",
"=@	c #FFB4AB",
"-@	c #FCD8CE",
";@	c #935220",
">@	c #874F1C",
",@	c #5B2D00",
"'@	c #B2927A",
")@	c #804B16",
"!@	c #5A2E00",
"~@	c #532A00",
"{@	c #3F2000",
"]@	c #608E20",
"^@	c #6C9721",
"/@	c #70A324",
"(@	c #8FC031",
"_@	c #8DBE32",
":@	c #669E29",
"<@	c #5C2E00",
"[@	c #CA9A77",
"}@	c #84522B",
"|@	c #713B0E",
"1@	c #653100",
"2@	c #703B0E",
"3@	c #FFB8AE",
"4@	c #844A22",
"5@	c #664830",
"6@	c #FFD0C4",
"7@	c #522C0E",
"8@	c #75481D",
"9@	c #C39876",
"0@	c #813C00",
"a@	c #823C00",
"b@	c #BE9774",
"c@	c #F48A79",
"d@	c #7D3B00",
"e@	c #833E00",
"f@	c #42751D",
"g@	c #51811F",
"h@	c #5A881F",
"i@	c #649120",
"j@	c #4B7F1C",
"k@	c #6DA023",
"l@	c #71A524",
"m@	c #568B1F",
"n@	c #396F1A",
"o@	c #623000",
"p@	c #77471A",
"q@	c #5A2C00",
"r@	c #3F1E00",
"s@	c #602F00",
"t@	c #834F28",
"u@	c #FFBDB1",
"v@	c #73380A",
"w@	c #873E00",
"x@	c #AE785E",
"y@	c #AA6732",
"z@	c #6E4319",
"A@	c #FFBAB1",
"B@	c #95460B",
"C@	c #873F00",
"D@	c #B97B54",
"E@	c #F58571",
"F@	c #884000",
"G@	c #41731D",
"H@	c #46771D",
"I@	c #4A7B1E",
"J@	c #43761A",
"K@	c #52851B",
"L@	c #54881C",
"M@	c #487D1A",
"N@	c #4E2800",
"O@	c #703500",
"P@	c #B89274",
"Q@	c #CC9D7C",
"R@	c #BC9273",
"S@	c #954A00",
"T@	c #FFB4AF",
"U@	c #C7865C",
"V@	c #883F00",
"W@	c #863F00",
"X@	c #9F521C",
"Y@	c #FFBBB6",
"Z@	c #843E00",
"`@	c #B76022",
" #	c #9C4A00",
".#	c #894100",
"+#	c #8E4000",
"@#	c #914400",
"##	c #663300",
"$#	c #487A1E",
"%#	c #47791E",
"&#	c #4C7C1E",
"*#	c #46781A",
"=#	c #447819",
"-#	c #437719",
";#	c #914500",
">#	c #A44E00",
",#	c #C28362",
"'#	c #FBE5DF",
")#	c #FFECE7",
"!#	c #FFF2EF",
"~#	c #F68774",
"{#	c #A65001",
"]#	c #A64F00",
"^#	c #A24D00",
"/#	c #B0540B",
"(#	c #8F4300",
"_#	c #8C4200",
":#	c #8A4100",
"<#	c #643200",
"[#	c #472400",
"}#	c #4E7F1E",
"|#	c #4A7B1D",
"1#	c #51801C",
"2#	c #3F7119",
"3#	c #3B6E19",
"4#	c #46761A",
"5#	c #7F3E00",
"6#	c #A14C00",
"7#	c #793600",
"8#	c #E77156",
"9#	c #7B3300",
"0#	c #803500",
"a#	c #894000",
"b#	c #A14D00",
"c#	c #853E00",
"d#	c #733800",
"e#	c #381C00",
"f#	c #3C6F1B",
"g#	c #3C6E1B",
"h#	c #5D8D1E",
"i#	c #53821F",
"j#	c #4E7E1D",
"k#	c #5E8B1E",
"l#	c #53821C",
"m#	c #507F1C",
"n#	c #59861E",
"o#	c #723700",
"p#	c #854000",
"q#	c #7C3B00",
"r#	c #6E9921",
"s#	c #6C3300",
"t#	c #6E3500",
"u#	c #703600",
"v#	c #4E2600",
"w#	c #78A820",
"x#	c #7BAD1F",
"y#	c #7CAF1F",
"z#	c #76A820",
"A#	c #699C23",
"B#	c #5C9025",
"C#	c #538923",
"D#	c #51871D",
"E#	c #669220",
"F#	c #618F20",
"G#	c #5D8B20",
"H#	c #64911F",
"I#	c #69941F",
"J#	c #699520",
"K#	c #6A9621",
"L#	c #643000",
"M#	c #8B4100",
"N#	c #6C3500",
"O#	c #76A51F",
"P#	c #73A021",
"Q#	c #719C21",
"R#	c #A14E00",
"S#	c #A15300",
"T#	c #76A421",
"U#	c #78A821",
"V#	c #7BAD20",
"W#	c #7EB122",
"X#	c #81B427",
"Y#	c #80B42C",
"Z#	c #73A92A",
"`#	c #549021",
" $	c #48831B",
".$	c #558A1E",
"+$	c #619020",
"@$	c #649220",
"#$	c #628F20",
"$$	c #66921F",
"%$	c #6F9921",
"&$	c #6E9A21",
"*$	c #6E9821",
"=$	c #709C21",
"-$	c #74A121",
";$	c #77A621",
">$	c #77A620",
",$	c #73A121",
"'$	c #070800",
")$	c #8B4200",
"!$	c #FA8362",
"~$	c #A75500",
"{$	c #74A221",
"]$	c #77A821",
"^$	c #7DB122",
"/$	c #84B828",
"($	c #86BA2E",
"_$	c #7EB32C",
":$	c #67A022",
"<$	c #4F8B1C",
"[$	c #447E1B",
"}$	c #53871D",
"|$	c #58871E",
"1$	c #6C9821",
"2$	c #689420",
"3$	c #709D21",
"4$	c #75A421",
"5$	c #79A820",
"6$	c #72A021",
"7$	c #120D00",
"8$	c #B65E00",
"9$	c #CB6922",
"0$	c #7AAD22",
"a$	c #7DB227",
"b$	c #7DB22C",
"c$	c #79AF2A",
"d$	c #6EA522",
"e$	c #56901C",
"f$	c #3F7C1A",
"g$	c #49801B",
"h$	c #51831C",
"i$	c #4F7F1D",
"j$	c #679420",
"k$	c #709A21",
"l$	c #66931F",
"m$	c #5E8C1E",
"n$	c #5A881E",
"o$	c #6A9721",
"p$	c #77A721",
"q$	c #75A521",
"r$	c #73A221",
"s$	c #3D1E00",
"t$	c #713900",
"u$	c #DA7608",
"v$	c #67921F",
"w$	c #6C9720",
"x$	c #719E21",
"y$	c #72A321",
"z$	c #699F23",
"A$	c #609925",
"B$	c #619A24",
"C$	c #6B9F21",
"D$	c #61961D",
"E$	c #48801B",
"F$	c #43781A",
"G$	c #44761A",
"H$	c #45771B",
"I$	c #65931F",
"J$	c #4B7C1D",
"K$	c #43761C",
"L$	c #477A1C",
"M$	c #50821D",
"N$	c #639020",
"O$	c #729E21",
"P$	c #77A720",
"Q$	c #79AB1F",
"R$	c #78A91F",
"S$	c #3B1E00",
"T$	c #994800",
"U$	c #C96800",
"V$	c #679520",
"W$	c #51881D",
"X$	c #3C7A1C",
"Y$	c #407D1C",
"Z$	c #5D901F",
"`$	c #6B9920",
" %	c #62911F",
".%	c #487A1B",
"+%	c #3D7019",
"@%	c #41741C",
"#%	c #5A891F",
"$%	c #689320",
"%%	c #5B891F",
"&%	c #44781C",
"*%	c #356E1A",
"=%	c #357019",
"-%	c #40791A",
";%	c #5B8C1E",
">%	c #6D9721",
",%	c #7BAC1F",
"'%	c #241400",
")%	c #B85900",
"!%	c #4C7C1D",
"~%	c #507F1D",
"{%	c #5A891E",
"]%	c #629120",
"^%	c #5C8D1F",
"/%	c #52871E",
"(%	c #54881E",
"_%	c #54821D",
":%	c #4A7A1C",
"<%	c #608E1F",
"[%	c #5D8A1F",
"}%	c #326E19",
"|%	c #2E6D18",
"1%	c #387519",
"2%	c #77A520",
"3%	c #7AAA1F",
"4%	c #7CAD1F",
"5%	c #100D00",
"6%	c #9B4B00",
"7%	c #C16400",
"8%	c #45761C",
"9%	c #4F7F1E",
"0%	c #608D1F",
"a%	c #65921F",
"b%	c #6A9620",
"c%	c #63901F",
"d%	c #507E1D",
"e%	c #43731B",
"f%	c #4F811D",
"g%	c #39721A",
"h%	c #306E19",
"i%	c #35721A",
"j%	c #477F1C",
"k%	c #5E8F1E",
"l%	c #6F9B20",
"m%	c #75A320",
"n%	c #78A920",
"o%	c #110D00",
"p%	c #974900",
"q%	c #C06200",
"r%	c #44751D",
"s%	c #497A1E",
"t%	c #56851E",
"u%	c #5F8C1F",
"v%	c #628E20",
"w%	c #659020",
"x%	c #699620",
"y%	c #61901F",
"z%	c #4E7D1D",
"A%	c #346618",
"B%	c #53811D",
"C%	c #618E1F",
"D%	c #679320",
"E%	c #5E8C1F",
"F%	c #4A7C1D",
"G%	c #3A701C",
"H%	c #346D1B",
"I%	c #36721A",
"J%	c #4A811C",
"K%	c #6F9C20",
"L%	c #709D20",
"M%	c #823F00",
"N%	c #B65900",
"O%	c #773900",
"P%	c #4A7A1D",
"Q%	c #45771D",
"R%	c #48791D",
"S%	c #497A1C",
"T%	c #52811E",
"U%	c #49791C",
"V%	c #4B7D22",
"W%	c #48791E",
"X%	c #5D8B1F",
"Y%	c #51801E",
"Z%	c #40741C",
"`%	c #386F1B",
" &	c #356F1A",
".&	c #3B7519",
"+&	c #4A811B",
"@&	c #5C8D1E",
"#&	c #659320",
"$&	c #140E00",
"%&	c #773C0E",
"&&	c #EF7F3B",
"*&	c #904500",
"=&	c #5C8A1E",
"-&	c #57861F",
";&	c #52821E",
">&	c #43781B",
",&	c #36701A",
"'&	c #4D7F1E",
")&	c #669120",
"!&	c #5F8B1F",
"~&	c #54811D",
"{&	c #6E9E2F",
"]&	c #568727",
"^&	c #497B22",
"/&	c #507F1E",
"(&	c #4A7C1E",
"_&	c #477B1E",
":&	c #44791D",
"<&	c #3A741A",
"[&	c #337019",
"}&	c #447A1C",
"|&	c #58881E",
"1&	c #693500",
"2&	c #C16200",
"3&	c #5F8E1F",
"4&	c #5F8D20",
"5&	c #4B801D",
"6&	c #367319",
"7&	c #326F19",
"8&	c #3B741C",
"9&	c #50821E",
"0&	c #6A9520",
"a&	c #5E8A1E",
"b&	c #87B536",
"c&	c #7BAB33",
"d&	c #6B9B2E",
"e&	c #538424",
"f&	c #45751D",
"g&	c #57871F",
"h&	c #487C1C",
"i&	c #346D19",
"j&	c #336919",
"k&	c #356919",
"l&	c #366C18",
"m&	c #3A7419",
"n&	c #482400",
"o&	c #924500",
"p&	c #5C8A1F",
"q&	c #5B8C1F",
"r&	c #4B821D",
"s&	c #407A1C",
"t&	c #36711A",
"u&	c #447C1C",
"v&	c #67951F",
"w&	c #628D20",
"x&	c #91C039",
"y&	c #91BF39",
"z&	c #82B034",
"A&	c #5F9028",
"B&	c #43751D",
"C&	c #4C7C1C",
"D&	c #5D8C1F",
"E&	c #5F8D1F",
"F&	c #4E7F1D",
"G&	c #356C1A",
"H&	c #2E6419",
"I&	c #2D6319",
"J&	c #2D6618",
"K&	c #316F19",
"L&	c #337218",
"M&	c #397619",
"N&	c #427A1B",
"O&	c #4B7F1D",
"P&	c #58871F",
"Q&	c #63911F",
"R&	c #5A8B1E",
"S&	c #4D831D",
"T&	c #3A751B",
"U&	c #447C1B",
"V&	c #638F20",
". + @ # # # @ $ % % $ & & * = - ; > , ' ) ! ~ { ] ^ / ( _ : ",
"< [ } | 1 1 } 2 3 4 5 6 7 8 9 0 a b c d e f g h i j k l m n ",
"o p q r s t u v 0 w w x y z A B C D E F F G H I I J K L M N ",
"O P Q R S T U V W X Y Z `  ...+.@.#.$.%.&.*.=.-.;.>.,.'.).!.",
"~.{.].^./.(._.:.z <.[.}.|.1.2.3.4.5.6.7.8.9.0.a.b.c.d.e.f.g.",
"h.i.j.^.k.l.m.n.o.p.q.r.s.t...u.v.w.x.y.z.A.B.C.D.E.F.G.H.I.",
"J.K.L.M.^.N.O.P.Q.R.S.T.U.V.W.X.Y.Z.`. +.+++@+#+$+%+&+*+=+-+",
";+>+,+E '+)+!+~+{+]+^+/+(+_+:+<+[+}+|+1+2+3+4+5+#+6+7+8+9+0+",
"a+b+c+d+e+f+g+h+i+j+k+l+m+n+o+p+q+r+s+t+2+u+v+w+&+m+#+x+y+z+",
"A+B+C+D+E+#+F+G+H+I+J+K+L+M+N+O+P+Q+R+S+2+u+T+U+L+V+W+5 X+Y+",
"Z+`+c+ @.@&++@@@#@$@%@&@r+*@=@-@;@%+>@S+.+,@'@)@!@~@{@]@$ ^@",
"/@(@_@:@j+<@u+[@}@|@1@%+2@3@4@5@6@7@8@9@0@a@b@c@d@e@f@g@h@i@",
"j@k@l@m@n@l+o@T+p@q@r@s@t@u@v@w@x@y@z@A@B@C@D@E@W+F@G@H@I@= ",
"J@K@L@M@N@Y O@P@Q@ +R@S@T@U@V@W@X@Y@Z@`@ #.#+#@#F@E ##$#%#&#",
"*#=#=#-#;#>#z ,#'#)#!#O.~#{#>#]#^#/#]#F@(#_#:#F@Z@<#[#}#I@|#",
"1#2#3#4#5#i 6#7#8#9#0#N.V@]#]#a#b#^.c#d#L+e#f#g#C h#@ h@i#j#",
"k#l#m#n#o# #F@p#6#C@q#5#r#s#t#u#v#w#x#y#z#A#B#C#p D#3 E#F#G#",
"H#I#J#K#L#M##+N#O#O#P#Q#x+r#o#R#S#T#U#V#W#X#Y#Z#`# $.$+$@$#$",
"$$%$Y+&$*$X+&$=$-$;$>$,$y+'$)$!$~$z+{$]$^$/$($_$:$<$[$}$0 |$",
"$$Y+Y+1$J#2$K#1$3$4$5$4$6$7${@8$9$&$y+4$0$a$b$c$d$e$f$g$h$i$",
"j$k$r#l$m$n$- * o$P#>$p$q$r$s$t$u$v$w$x$y$z$A$B$C$D$E$F$G$H$",
"I$X+% G#J$K$L$M$N$Y+O$P$Q$R$S$T$U$h@* K#V$W$X$Y$Z$`$ %.%+%@%",
"#%E#$%%%&%*%=%-%;%>%Q#P$,%V#'%)%l.!%~%{%]%^%/%(%@$r#w$k#_%:%",
"i$<%+ [%L$}%|%1%}$V$=$2%3%4%5%6%7%8%H@9%0%+ a%$ 5 Y+%$b%c%d%",
"e%%%+ #$f%g%h%i%j%k%l%m%>$n%o%p%q%:.r%s%t%u%v%w%% Y+%$x%y%z%",
"A%B%C%D%E%F%G%H%I%J%x%K%L%O$7$M%N%O%P%Q%R%S%J$T%v%X+4 ]@t%U%",
"V%W%U%_%X%Y%Z%`% &.&+&@&#&1$$&%&&&*&=&-&;&>&,&g%'&]@% )&!&~&",
"{&]&^&s%Y%/&(&_&:&<&[&}&M$|&@&1&2&_#3&#$4&5&6&7&8&9&& 4 0&a&",
"b&c&d&e&f&z%h@G#g&h&i&j&k&l&m&n&o&7+9&p&6 q&r&s&t&u&v&x+4 w&",
"x&y&z&A&B&C&D&@ E&F&G&H&I&J&K&L&M&N&O&P&w%Q&R&S&T&U&v&=$r#V&"};
