/* XPM */
static char * player_l_r_xpm[] = {
"30 30 420 2",
"  	c None",
". 	c #285C16",
"+ 	c #1B5015",
"@ 	c #1A4F15",
"# 	c #1F5416",
"$ 	c #205516",
"% 	c #235717",
"& 	c #275C17",
"* 	c #285D17",
"= 	c #2B6016",
"- 	c #396D18",
"; 	c #57861C",
"> 	c #69961E",
", 	c #6D9920",
"' 	c #689421",
") 	c #5D8A20",
"! 	c #55841F",
"~ 	c #618E20",
"{ 	c #699521",
"] 	c #669320",
"^ 	c #6B9621",
"/ 	c #639120",
"( 	c #618F1F",
"_ 	c #659220",
": 	c #639220",
"< 	c #3F721C",
"[ 	c #3E721D",
"} 	c #3E731D",
"| 	c #3F741E",
"1 	c #3F731E",
"2 	c #41761E",
"3 	c #41751D",
"4 	c #3F741B",
"5 	c #417419",
"6 	c #48791A",
"7 	c #4F7E1C",
"8 	c #53821E",
"9 	c #59871F",
"0 	c #5B8B1E",
"a 	c #5A8C1F",
"b 	c #5D8C1E",
"c 	c #659120",
"d 	c #6B9721",
"e 	c #6D9821",
"f 	c #669420",
"g 	c #5A8B1F",
"h 	c #53871E",
"i 	c #4E841D",
"j 	c #4E841C",
"k 	c #598B1E",
"l 	c #5F8F1F",
"m 	c #5D9023",
"n 	c #70A328",
"o 	c #75A82A",
"p 	c #72A52A",
"q 	c #689C28",
"r 	c #629626",
"s 	c #629627",
"t 	c #619526",
"u 	c #5D9121",
"v 	c #4F831C",
"w 	c #396D19",
"x 	c #000000",
"y 	c #598A1D",
"z 	c #55831E",
"A 	c #5B881F",
"B 	c #6B9620",
"C 	c #457D1C",
"D 	c #3B771B",
"E 	c #367519",
"F 	c #38781A",
"G 	c #3B7A1B",
"H 	c #417E1C",
"I 	c #49821D",
"J 	c #55881E",
"K 	c #6CA024",
"L 	c #84B92A",
"M 	c #8CC02E",
"N 	c #86B92F",
"O 	c #649828",
"P 	c #4E8222",
"Q 	c #4B7F22",
"R 	c #4A7E21",
"S 	c #477B1E",
"T 	c #3F731A",
"U 	c #482010",
"V 	c #54841E",
"W 	c #679420",
"X 	c #608F20",
"Y 	c #4E801E",
"Z 	c #3C731B",
"` 	c #37711A",
" .	c #3D791A",
"..	c #4B891C",
"+.	c #549121",
"@.	c #569223",
"#.	c #538E22",
"$.	c #4C851E",
"%.	c #71A521",
"&.	c #84B826",
"*.	c #8ABD2A",
"=.	c #81B32C",
"-.	c #538622",
";.	c #33671A",
">.	c #2F631A",
",.	c #2E6218",
"'.	c #705840",
").	c #E8A088",
"!.	c #5E8E1F",
"~.	c #54851F",
"{.	c #46781D",
"].	c #3D711C",
"^.	c #3F741C",
"/.	c #4F851D",
"(.	c #689F20",
"_.	c #76AD27",
":.	c #74AC2A",
"<.	c #68A128",
"[.	c #4E8B20",
"}.	c #73A620",
"|.	c #80B324",
"1.	c #84B627",
"2.	c #7BAC29",
"3.	c #51831F",
"4.	c #336719",
"5.	c #2F6218",
"6.	c #FFFFFF",
"7.	c #F8D8C8",
"8.	c #4A7E1D",
"9.	c #42751C",
"0.	c #3E711D",
"a.	c #43761D",
"b.	c #578A1E",
"c.	c #74A721",
"d.	c #84B829",
"e.	c #82B82E",
"f.	c #75AD2C",
"g.	c #599424",
"h.	c #77AA1F",
"i.	c #7CAD22",
"j.	c #7CAC24",
"k.	c #75A324",
"l.	c #5F8E20",
"m.	c #4A791C",
"n.	c #987850",
"o.	c #40741D",
"p.	c #41731C",
"q.	c #47781C",
"r.	c #598B1D",
"s.	c #74A622",
"t.	c #87B92B",
"u.	c #8BBE30",
"v.	c #85B930",
"w.	c #70A82A",
"x.	c #77A81F",
"y.	c #76A520",
"z.	c #74A120",
"A.	c #709C21",
"B.	c #6D9921",
"C.	c #63911F",
"D.	c #4B7C1E",
"E.	c #51811E",
"F.	c #5A8B1E",
"G.	c #6C9D22",
"H.	c #84B52D",
"I.	c #95C435",
"J.	c #96C636",
"K.	c #86B930",
"L.	c #729F21",
"M.	c #719D21",
"N.	c #709B21",
"O.	c #6F9921",
"P.	c #5A8D1E",
"Q.	c #C87860",
"R.	c #4A7B1E",
"S.	c #59881F",
"T.	c #5E8C1F",
"U.	c #5C8B1E",
"V.	c #619222",
"W.	c #7FAE2F",
"X.	c #9AC839",
"Y.	c #9ECD3A",
"Z.	c #8ABC32",
"`.	c #6F9A21",
" +	c #62921F",
".+	c #50801E",
"++	c #649120",
"@+	c #5B8A1F",
"#+	c #598B22",
"$+	c #7BAB30",
"%+	c #9CCA3B",
"&+	c #A1CF3B",
"*+	c #8ABC31",
"=+	c #6C9721",
"-+	c #608E20",
";+	c #487E1B",
">+	c #6A9521",
",+	c #679520",
"'+	c #4E8421",
")+	c #73A72E",
"!+	c #9FCD38",
"~+	c #85B72C",
"{+	c #5A881F",
"]+	c #51811F",
"^+	c #42751D",
"/+	c #669220",
"(+	c #719B21",
"_+	c #699620",
":+	c #407B1D",
"<+	c #669E29",
"[+	c #8DBE32",
"}+	c #8FC031",
"|+	c #70A324",
"1+	c #46771D",
"2+	c #41731D",
"3+	c #729C21",
"4+	c #6A9620",
"5+	c #4D7E1B",
"6+	c #396F1A",
"7+	c #568B1F",
"8+	c #71A524",
"9+	c #6DA023",
"0+	c #4B7F1C",
"a+	c #4C7C1E",
"b+	c #47791E",
"c+	c #487A1E",
"d+	c #4E7E1D",
"e+	c #4F7F1D",
"f+	c #719C21",
"g+	c #6C9720",
"h+	c #56841D",
"i+	c #41741A",
"j+	c #487D1A",
"k+	c #54881C",
"l+	c #52851B",
"m+	c #43761A",
"n+	c #4A7B1D",
"o+	c #4E7F1E",
"p+	c #58871E",
"q+	c #59871E",
"r+	c #41731A",
"s+	c #5E8B1F",
"t+	c #4B7B1B",
"u+	c #437719",
"v+	c #447819",
"w+	c #46781A",
"x+	c #53821F",
"y+	c #5D8D1E",
"z+	c #4D7F1D",
"A+	c #3C6E1B",
"B+	c #3C6F1B",
"C+	c #7088A0",
"D+	c #6E9921",
"E+	c #689320",
"F+	c #5A871E",
"G+	c #46761A",
"H+	c #3B6E19",
"I+	c #3F7119",
"J+	c #51801C",
"K+	c #5D8B20",
"L+	c #618F20",
"M+	c #51871D",
"N+	c #538923",
"O+	c #5C9025",
"P+	c #C8D0F8",
"Q+	c #679320",
"R+	c #59861E",
"S+	c #507F1C",
"T+	c #53821C",
"U+	c #5E8B1E",
"V+	c #628F20",
"W+	c #649220",
"X+	c #619020",
"Y+	c #558A1E",
"Z+	c #48831B",
"`+	c #549021",
" @	c #73A92A",
".@	c #E8F0F0",
"+@	c #6E9821",
"@@	c #6A9621",
"#@	c #699520",
"$@	c #69941F",
"%@	c #64911F",
"&@	c #53871D",
"*@	c #447E1B",
"=@	c #4F8B1C",
"-@	c #67A022",
";@	c #7EB32C",
">@	c #6E9A21",
",@	c #66921F",
"'@	c #51831C",
")@	c #49801B",
"!@	c #3F7C1A",
"~@	c #56901C",
"{@	c #6EA522",
"]@	c #79AF2A",
"^@	c #6C9821",
"/@	c #45771B",
"(@	c #44761A",
"_@	c #43781A",
":@	c #48801B",
"<@	c #61961D",
"[@	c #6B9F21",
"}@	c #619A24",
"|@	c #66931F",
"1@	c #709A21",
"2@	c #41741C",
"3@	c #3D7019",
"4@	c #487A1B",
"5@	c #62911F",
"6@	c #6B9920",
"7@	c #5D901F",
"8@	c #65931F",
"9@	c #4A7A1C",
"0@	c #54821D",
"a@	c #5B891F",
"b@	c #5A891F",
"c@	c #507E1D",
"d@	c #63901F",
"e@	c #5D8A1F",
"f@	c #608E1F",
"g@	c #4E7D1D",
"h@	c #61901F",
"i@	c #6F9B20",
"j@	c #43731B",
"k@	c #49791C",
"l@	c #56851E",
"m@	c #628E20",
"n@	c #52811E",
"o@	c #6F9C20",
"p@	c #4A811C",
"q@	c #618E1F",
"r@	c #53811D",
"s@	c #346618",
"t@	c #54811D",
"u@	c #5F8B1F",
"v@	c #669120",
"w@	c #4D7F1E",
"x@	c #39721A",
"y@	c #36701A",
"z@	c #689420",
"A@	c #659320",
"B@	c #5C8D1E",
"C@	c #4A811B",
"D@	c #3B7519",
"E@	c #356F1A",
"F@	c #5D8B1F",
"G@	c #48791E",
"H@	c #4B7D22",
"I@	c #5E8A1E",
"J@	c #6A9520",
"K@	c #50821E",
"L@	c #3B741C",
"M@	c #326F19",
"N@	c #367319",
"O@	c #4B801D",
"P@	c #5F8D20",
"Q@	c #5F8E1F",
"R@	c #5E8D1F",
"S@	c #5D8E1E",
"T@	c #58881E",
"U@	c #50821D",
"V@	c #447A1C",
"W@	c #337019",
"X@	c #3A741A",
"Y@	c #44791D",
"Z@	c #4A7C1E",
"`@	c #507F1E",
" #	c #51801E",
".#	c #497A1E",
"+#	c #497B22",
"@#	c #568727",
"##	c #6E9E2F",
"$#	c #628D20",
"%#	c #67951F",
"&#	c #447C1C",
"*#	c #36711A",
"=#	c #407A1C",
"-#	c #4B821D",
";#	c #5B8C1F",
">#	c #5C8A1F",
",#	c #487E1D",
"'#	c #417A1B",
")#	c #3C7719",
"!#	c #3A7419",
"~#	c #366C18",
"{#	c #356919",
"]#	c #336919",
"^#	c #346D19",
"/#	c #487C1C",
"(#	c #57871F",
"_#	c #45751D",
":#	c #538424",
"<#	c #6B9B2E",
"[#	c #7BAB33",
"}#	c #87B536",
"|#	c #638F20",
"1#	c #447C1B",
"2#	c #3A751B",
"3#	c #4D831D",
"4#	c #659020",
"5#	c #58871F",
"6#	c #4B7F1D",
"7#	c #427A1B",
"8#	c #397619",
"9#	c #337218",
"0#	c #316F19",
"a#	c #2D6618",
"b#	c #2D6319",
"c#	c #2E6419",
"d#	c #356C1A",
"e#	c #4E7F1D",
"f#	c #5F8D1F",
"g#	c #5D8C1F",
"h#	c #4C7C1C",
"i#	c #43751D",
"j#	c #5F9028",
"k#	c #82B034",
"l#	c #91BF39",
"m#	c #91C039",
". + @ # $ % & * = - ; > , ' ) ! ~ { { ] ^ ^ ] / ( ( ( / _ : ",
"< [ } | 1 | 2 3 4 5 6 7 8 9 0 a b ~ c d e f g h i i j h k l ",
"m n o p q r s t u v w x x x x x y z A B B 0 C D E F G H I J ",
"K L M N O P Q R S T U U U U U U U x V W X Y Z `  ...+.@.#.$.",
"%.&.*.=.-.;.>.>.,.'.).U ).).'.U U U x !.~.{.].^./.(._.:.<.[.",
"}.|.1.2.3.4.5.5.x 6.7.).6.7.).'.U U x x 8.9.0.a.b.c.d.e.f.g.",
"h.i.j.k.l.7 m.x 6.x 6.).x 6.7.).U U n.'.x o.p.q.r.s.t.u.v.w.",
"x.y.z.A.B.C.h x 6.x 6.).x 6.7.).'.U 7.).x a.D.E.F.G.H.I.J.K.",
"L.M.N.O., P.x ).Q.Q.).Q.).).7.7.).'.7.).x R.S.T.U.V.W.X.Y.Z.",
"`.B.d '  +x Q.).n.).n.).7.7.).7.7.7.7.7.x .+~ ++@+#+$+%+&+*+",
"=+] -+! ;+x 7.7.7.).7.7.7.7.7.7.7.7.n.).x @+>+,+J '+)+X.!+~+",
"++{+]+^+'.).7.7.7.).7.7.7.7.).7.7.7.).n.x /+(+_+v :+<+[+}+|+",
"! R.1+2+x n.).7.7.7.7.7.7.).'.).7.).n.x U x 3+4+5+6+7+8+9+0+",
"a+b+c+d+e+x x x x x x x '.'.).7.).n.x U U x f+g+h+i+j+k+l+m+",
"n+R.o+p+q+e+r+x n.n.).).).).).).n.x U U U x (+e s+t+u+v+v+w+",
"d+x+{+/ y+z+A+B+x x x x x x x x x x U U x C+x D+E+F+G+H+I+J+",
"K+L+/+f M+I N+O+x C+U U U U U U C+U U U x P+x N.D+Q+R+S+T+U+",
"V+W+X+Y+Z+`+ @x U C+P+P+P+.@.@C+x U U U x P+x A.`.+@@@#@$@%@",
"p+0 &@*@=@-@;@x U C+P+P+.@P+P+x U U U x P+x x x B.+@>@`.O.,@",
"e+'@)@!@~@{@]@x U U C+P+P+C+x U U U U x P+x U x x #@^@`.`.,@",
"/@(@_@:@<@[@}@x x x x C+C+x n.U U U x P+x U U x ).x |@D+1@W ",
"2@3@4@5@6@7@x x ).n.).x x n.).Q.n.x x C+x U U x ).x K+^ B.8@",
"9@0@U+g+D+W+x ).n.'.Q.).x ).7.7.7.).x x U U x ).Q.x a@E+/+b@",
"c@d@4+O.`.d x '.'.'.n.Q.x ).7.7.7.).x x U x ).).Q.x e@_ f@e+",
"g@h@_+O.`.^ x '.'.'.'.n.x n.n.).).).x i@x Q.).Q.n.x V+_ a@j@",
"k@l@-+e B.m@n@x '.'.'.n.n.x x x x x o@_+p@x Q.'.n.x Q+q@r@s@",
"t@u@v@^ -+w@x@y@x x x x x z@D+>@^@A@B@C@D@E@x x x F@0@k@G@H@",
"I@J@e { K@L@M@N@O@P@V+Q@R@S@S@B@T@U@V@W@X@Y@S Z@`@ #.#+#@###",
"$#e N.%#&#*#=#-#;#c >#K@,#'#)#!#~#{#]#^#/#(#K+{+g@_#:#<#[#}#",
"|#D+A.%#1#2#3#F.C.4#5#6#7#8#9#0#a#b#c#d#e#f#/ g#h#i#j#k#l#m#"};
