/* XPM */
static char * player_r_xpm[] = {
"30 30 412 2",
"  	c None",
". 	c #639220",
"+ 	c #659220",
"@ 	c #639120",
"# 	c #618F1F",
"$ 	c #669320",
"% 	c #6B9621",
"& 	c #699521",
"* 	c #618E20",
"= 	c #55841F",
"- 	c #5D8A20",
"; 	c #689421",
"> 	c #6D9920",
", 	c #69961E",
"' 	c #57861C",
") 	c #396D18",
"! 	c #2B6016",
"~ 	c #285D17",
"{ 	c #275C17",
"] 	c #235717",
"^ 	c #205516",
"/ 	c #1F5416",
"( 	c #1A4F15",
"_ 	c #1B5015",
": 	c #285C16",
"< 	c #5F8F1F",
"[ 	c #598B1E",
"} 	c #53871E",
"| 	c #4E841C",
"1 	c #4E841D",
"2 	c #5A8B1F",
"3 	c #669420",
"4 	c #6D9821",
"5 	c #6B9721",
"6 	c #659120",
"7 	c #5D8C1E",
"8 	c #5A8C1F",
"9 	c #5B8B1E",
"0 	c #59871F",
"a 	c #53821E",
"b 	c #4F7E1C",
"c 	c #48791A",
"d 	c #417419",
"e 	c #3F741B",
"f 	c #41751D",
"g 	c #41761E",
"h 	c #3F741E",
"i 	c #3F731E",
"j 	c #3E731D",
"k 	c #3E721D",
"l 	c #3F721C",
"m 	c #55881E",
"n 	c #49821D",
"o 	c #417E1C",
"p 	c #3B7A1B",
"q 	c #38781A",
"r 	c #367519",
"s 	c #3B771B",
"t 	c #457D1C",
"u 	c #6B9620",
"v 	c #5B881F",
"w 	c #55831E",
"x 	c #598A1D",
"y 	c #699C1F",
"z 	c #62941F",
"A 	c #4D7F1D",
"B 	c #3B6D19",
"C 	c #356818",
"D 	c #396D19",
"E 	c #4F831C",
"F 	c #5D9121",
"G 	c #619526",
"H 	c #629627",
"I 	c #629626",
"J 	c #689C28",
"K 	c #72A52A",
"L 	c #75A82A",
"M 	c #70A328",
"N 	c #5D9023",
"O 	c #4C851E",
"P 	c #538E22",
"Q 	c #569223",
"R 	c #549121",
"S 	c #4B891C",
"T 	c #3D791A",
"U 	c #37711A",
"V 	c #3C731B",
"W 	c #4E801E",
"X 	c #608F20",
"Y 	c #679420",
"Z 	c #54841E",
"` 	c #578A1D",
" .	c #72A51F",
"..	c #6FA21F",
"+.	c #000000",
"@.	c #477B1E",
"#.	c #4A7E21",
"$.	c #4B7F22",
"%.	c #4E8222",
"&.	c #649828",
"*.	c #86B92F",
"=.	c #8CC02E",
"-.	c #84B92A",
";.	c #6CA024",
">.	c #4E8B20",
",.	c #68A128",
"'.	c #74AC2A",
").	c #76AD27",
"!.	c #689F20",
"~.	c #4F851D",
"{.	c #3F741C",
"].	c #3D711C",
"^.	c #46781D",
"/.	c #54851F",
"(.	c #5E8E1F",
"_.	c #4F811D",
":.	c #4B7D1D",
"<.	c #578A1E",
"[.	c #482010",
"}.	c #2F631A",
"|.	c #33671A",
"1.	c #538622",
"2.	c #81B32C",
"3.	c #8ABD2A",
"4.	c #84B826",
"5.	c #71A521",
"6.	c #599424",
"7.	c #75AD2C",
"8.	c #82B82E",
"9.	c #84B829",
"0.	c #74A721",
"a.	c #43761D",
"b.	c #3E711D",
"c.	c #42751C",
"d.	c #4A7E1D",
"e.	c #50861E",
"f.	c #487C1D",
"g.	c #487B1D",
"h.	c #705840",
"i.	c #E8A088",
"j.	c #2F6218",
"k.	c #336719",
"l.	c #51831F",
"m.	c #7BAC29",
"n.	c #84B627",
"o.	c #80B324",
"p.	c #73A620",
"q.	c #70A82A",
"r.	c #85B930",
"s.	c #8BBE30",
"t.	c #87B92B",
"u.	c #74A622",
"v.	c #598B1D",
"w.	c #47781C",
"x.	c #41731C",
"y.	c #40741D",
"z.	c #3D741B",
"A.	c #39751A",
"B.	c #39721A",
"C.	c #F8D8C8",
"D.	c #F8F8F8",
"E.	c #5F8E20",
"F.	c #75A324",
"G.	c #7CAC24",
"H.	c #7CAD22",
"I.	c #77AA1F",
"J.	c #86B930",
"K.	c #96C636",
"L.	c #95C435",
"M.	c #84B52D",
"N.	c #6C9D22",
"O.	c #5A8B1E",
"P.	c #51811E",
"Q.	c #4B7C1E",
"R.	c #376F1A",
"S.	c #2C6B19",
"T.	c #987850",
"U.	c #6D9921",
"V.	c #709C21",
"W.	c #74A120",
"X.	c #76A520",
"Y.	c #77A81F",
"Z.	c #8ABC32",
"`.	c #9ECD3A",
" +	c #9AC839",
".+	c #7FAE2F",
"++	c #619222",
"@+	c #5C8B1E",
"#+	c #5E8C1F",
"$+	c #59881F",
"%+	c #4A7B1E",
"&+	c #356E1A",
"*+	c #6F9921",
"=+	c #709B21",
"-+	c #719D21",
";+	c #729F21",
">+	c #8ABC31",
",+	c #A1CF3B",
"'+	c #9CCA3B",
")+	c #7BAB30",
"!+	c #598B22",
"~+	c #5B8A1F",
"{+	c #649120",
"]+	c #50801E",
"^+	c #366F1B",
"/+	c #C87860",
"(+	c #6F9A21",
"_+	c #85B72C",
":+	c #9FCD38",
"<+	c #73A72E",
"[+	c #4E8421",
"}+	c #679520",
"|+	c #6A9521",
"1+	c #457A1B",
"2+	c #2C6A19",
"3+	c #608E20",
"4+	c #6C9721",
"5+	c #70A324",
"6+	c #8FC031",
"7+	c #8DBE32",
"8+	c #669E29",
"9+	c #407B1D",
"0+	c #699620",
"a+	c #719B21",
"b+	c #669220",
"c+	c #477E1C",
"d+	c #1F6416",
"e+	c #51811F",
"f+	c #5A881F",
"g+	c #4B7F1C",
"h+	c #6DA023",
"i+	c #71A524",
"j+	c #568B1F",
"k+	c #396F1A",
"l+	c #4D7E1B",
"m+	c #6A9620",
"n+	c #729C21",
"o+	c #48811C",
"p+	c #43761A",
"q+	c #52851B",
"r+	c #54881C",
"s+	c #487D1A",
"t+	c #41741A",
"u+	c #56841D",
"v+	c #6C9720",
"w+	c #719C21",
"x+	c #47791E",
"y+	c #4C7C1E",
"z+	c #46781A",
"A+	c #447819",
"B+	c #437719",
"C+	c #4B7B1B",
"D+	c #5E8B1F",
"E+	c #4E7F1E",
"F+	c #4A7B1D",
"G+	c #51801C",
"H+	c #3F7119",
"I+	c #3B6E19",
"J+	c #46761A",
"K+	c #5A871E",
"L+	c #689320",
"M+	c #6E9921",
"N+	c #5D8D1E",
"O+	c #53821F",
"P+	c #4E7E1D",
"Q+	c #5E8B1E",
"R+	c #53821C",
"S+	c #507F1C",
"T+	c #59861E",
"U+	c #679320",
"V+	c #C8D0F8",
"W+	c #51871D",
"X+	c #618F20",
"Y+	c #5D8B20",
"Z+	c #64911F",
"`+	c #69941F",
" @	c #699520",
".@	c #6A9621",
"+@	c #6E9821",
"@@	c #7088A0",
"#@	c #E8F0F0",
"$@	c #558A1E",
"%@	c #619020",
"&@	c #649220",
"*@	c #628F20",
"=@	c #66921F",
"-@	c #6E9A21",
";@	c #FFFFFF",
">@	c #53871D",
",@	c #58871E",
"'@	c #6C9821",
")@	c #51831C",
"!@	c #4F7F1D",
"~@	c #709A21",
"{@	c #44761A",
"]@	c #45771B",
"^@	c #65931F",
"/@	c #51881D",
"(@	c #3C7A1C",
"_@	c #41741C",
":@	c #5A891F",
"<@	c #629120",
"[@	c #5C8D1F",
"}@	c #52871E",
"|@	c #4A7A1C",
"1@	c #608E1F",
"2@	c #4F7F1E",
"3@	c #608D1F",
"4@	c #65921F",
"5@	c #507E1D",
"6@	c #43731B",
"7@	c #5B891F",
"8@	c #35721A",
"9@	c #497A1E",
"0@	c #56851E",
"a@	c #5F8C1F",
"b@	c #628E20",
"c@	c #659020",
"d@	c #4E7D1D",
"e@	c #346618",
"f@	c #53811D",
"g@	c #618E1F",
"h@	c #4A7C1D",
"i@	c #3A701C",
"j@	c #346D1B",
"k@	c #4A7A1D",
"l@	c #45771D",
"m@	c #48791D",
"n@	c #497A1C",
"o@	c #4B7C1D",
"p@	c #52811E",
"q@	c #49791C",
"r@	c #4B7D22",
"s@	c #48791E",
"t@	c #54821D",
"u@	c #5D8B1F",
"v@	c #51801E",
"w@	c #40741C",
"x@	c #386F1B",
"y@	c #5C8A1E",
"z@	c #57861F",
"A@	c #52821E",
"B@	c #43781B",
"C@	c #36701A",
"D@	c #4D7F1E",
"E@	c #669120",
"F@	c #5F8B1F",
"G@	c #54811D",
"H@	c #6E9E2F",
"I@	c #568727",
"J@	c #497B22",
"K@	c #507F1E",
"L@	c #4A7C1E",
"M@	c #44791D",
"N@	c #5D8E1E",
"O@	c #5E8D1F",
"P@	c #5F8E1F",
"Q@	c #5F8D20",
"R@	c #4B801D",
"S@	c #367319",
"T@	c #326F19",
"U@	c #3B741C",
"V@	c #50821E",
"W@	c #6A9520",
"X@	c #5E8A1E",
"Y@	c #87B536",
"Z@	c #7BAB33",
"`@	c #6B9B2E",
" #	c #538424",
".#	c #45751D",
"+#	c #57871F",
"@#	c #487C1C",
"##	c #346D19",
"$#	c #336919",
"%#	c #356919",
"&#	c #366C18",
"*#	c #3A7419",
"=#	c #3C7719",
"-#	c #417A1B",
";#	c #487E1D",
">#	c #5C8A1F",
",#	c #5B8C1F",
"'#	c #4B821D",
")#	c #407A1C",
"!#	c #36711A",
"~#	c #447C1C",
"{#	c #67951F",
"]#	c #628D20",
"^#	c #91C039",
"/#	c #91BF39",
"(#	c #82B034",
"_#	c #5F9028",
":#	c #43751D",
"<#	c #4C7C1C",
"[#	c #5D8C1F",
"}#	c #5F8D1F",
"|#	c #4E7F1D",
"1#	c #356C1A",
"2#	c #2E6419",
"3#	c #2D6319",
"4#	c #2D6618",
"5#	c #316F19",
"6#	c #337218",
"7#	c #397619",
"8#	c #427A1B",
"9#	c #4B7F1D",
"0#	c #58871F",
"a#	c #63911F",
"b#	c #4D831D",
"c#	c #3A751B",
"d#	c #447C1B",
"e#	c #638F20",
". + @ # # # @ $ % % $ & & * = - ; > , ' ) ! ~ { ] ^ / ( _ : ",
"< [ } | 1 1 } 2 3 4 5 6 * 7 8 9 0 a b c d e f g h i h j k l ",
"m n o p q r s t 9 u u v w x y z A B C D E F G H I J K L M N ",
"O P Q R S T U V W X Y Z A `  ...+.+.+.+.+.@.#.$.%.&.*.=.-.;.",
">.,.'.).!.~.{.].^./.(._.:.<.+.[.[.[.[.[.[.+.}.}.|.1.2.3.4.5.",
"6.7.8.9.0.<.a.b.c.d.e.f.g.+.[.[.[.h.i.i.[.i.h.j.k.l.m.n.o.p.",
"q.r.s.t.u.v.w.x.y.z.A.B.+.+.[.[.h.i.C.D.i.C.D.+.b E.F.G.H.I.",
"J.K.L.M.N.O.P.Q.a.R.S.+.h.T.[.[.i.C.D.+.i.D.+.D.+.U.V.W.X.Y.",
"Z.`. +.+++@+#+$+%+].&++.i.C.[.h.i.C.D.+.i.D.+.D.+.> *+=+-+;+",
">+,+'+)+!+~+{+* ]+f ^++.i.C.h.i.C.C.i.i./+i./+/+i.+.; 5 U.(+",
"_+:+ +<+[+m }+|+~+1+2++.C.C.C.C.C.i.C.C.i.T.i.T.i./++.3+$ 4+",
"5+6+7+8+9+E 0+a+b+c+d++.i.T.C.C.C.C.C.C.C.C.i.C.C.C.+.e+f+{+",
"g+h+i+j+k+l+m+n+Y o++.+.T.i.C.C.C.i.C.C.C.C.i.C.C.C.i.h.%+= ",
"p+q+r+s+t+u+v+w+m++.[.[.+.T.i.C.i.h.i.C.C.C.C.C.C.i.T.+.x+y+",
"z+A+A+B+C+D+4 a++.[.[.[.[.+.T.i.C.i.h.h.+.+.+.+.+.+.+.E+%+F+",
"G+H+I+J+K+L+M+V.+.[.[.[.[.[.+.T.i.i.i.i.i.i.T.T.+.N+@ f+O+P+",
"Q+R+S+T+U+M+=++.[.[.[.[.[.+.V++.+.+.+.+.+.+.+.+.+.W+3 b+X+Y+",
"Z+`+ @.@+@(+V.+.[.[.[.[.+.@@V+#@[.[.[.[.[.[.@@[.[.+.$@%@&@*@",
"=@*+(+-@+@U.+.[.[.[.[.+.@@V+V+#@#@V+V+V+V+;@+.[.[.[.+.>@9 ,@",
"=@(+(+'@+.+.h.[.[.[.+.@@@@V+V+V+#@#@#@V+V+;@+.[.[.[.[.+.)@!@",
"Y ~@M++.i.C.i.h.[.+.+.+.@@@@V+V+#@V+V+V+@@+.+.+.[.[./++.{@]@",
"^@U.% +.i.C.C.i.[.+.[.[.+.+.@@@@V+V+V+@@+./@(@+./+[.i./++._@",
":@b+L++.T.i.i.T.+.[.[.[.[.[.+.+.V+@@@@+.<@[@}@+.T./+i.i.+.|@",
"!@1@+ +.T.T.T.+.+.[.[.+.[.+.[.+.@@[.+.2@3@+ 4@+.+.+./+/++.5@",
"6@7@+ *@+.+.+.8@+.+.+.T.+.T.T.+.[.[.+.9@0@a@b@c@+.T.T.T.+.d@",
"e@f@g@U+#+h@i@j@+.i./+/+/+/+/+T.[.+.k@l@m@n@o@p@b@+.+.+.0@q@",
"r@s@q@t@u@v@w@x@+.i./+i./+h.T./++.1@y@z@A@B@C@B.D@3+% E@F@G@",
"H@I@J@9@v@K@L@@.M@+.+.+.+.+.+.+.N@O@P@*@Q@R@S@T@U@V@& 4 W@X@",
"Y@Z@`@ #.#d@f+Y++#@###$#%#&#*#=#-#;#V@>#6 ,#'#)#!#~#{#=+4 ]#",
"^#/#(#_#:#<#[#@ }#|#1#2#3#4#5#6#7#8#9#0#c@a#O.b#c#d#{#V.M+e#"};
