/* XPM */
static char * player_xpm[] = {
"30 30 420 2",
"  	c None",
". 	c #639220",
"+ 	c #659220",
"@ 	c #639120",
"# 	c #618F1F",
"$ 	c #669320",
"% 	c #6B9621",
"& 	c #699521",
"* 	c #618E20",
"= 	c #55841F",
"- 	c #5D8A20",
"; 	c #689421",
"> 	c #6D9920",
", 	c #69961E",
"' 	c #57861C",
") 	c #396D18",
"! 	c #2B6016",
"~ 	c #285D17",
"{ 	c #275C17",
"] 	c #235717",
"^ 	c #205516",
"/ 	c #1F5416",
"( 	c #1A4F15",
"_ 	c #1B5015",
": 	c #285C16",
"< 	c #5F8F1F",
"[ 	c #598B1E",
"} 	c #53871E",
"| 	c #4E841C",
"1 	c #4E841D",
"2 	c #5A8B1F",
"3 	c #669420",
"4 	c #6D9821",
"5 	c #6B9721",
"6 	c #659120",
"7 	c #5D8C1E",
"8 	c #5A8C1F",
"9 	c #5B8B1E",
"0 	c #59871F",
"a 	c #53821E",
"b 	c #4F7E1C",
"c 	c #48791A",
"d 	c #417419",
"e 	c #3F741B",
"f 	c #41751D",
"g 	c #41761E",
"h 	c #3F741E",
"i 	c #3F731E",
"j 	c #3E731D",
"k 	c #3E721D",
"l 	c #3F721C",
"m 	c #55881E",
"n 	c #49821D",
"o 	c #417E1C",
"p 	c #3B7A1B",
"q 	c #38781A",
"r 	c #367519",
"s 	c #3B771B",
"t 	c #457D1C",
"u 	c #6B9620",
"v 	c #5B881F",
"w 	c #55831E",
"x 	c #598A1D",
"y 	c #000000",
"z 	c #396D19",
"A 	c #4F831C",
"B 	c #5D9121",
"C 	c #619526",
"D 	c #629627",
"E 	c #629626",
"F 	c #689C28",
"G 	c #72A52A",
"H 	c #75A82A",
"I 	c #70A328",
"J 	c #5D9023",
"K 	c #4C851E",
"L 	c #538E22",
"M 	c #569223",
"N 	c #549121",
"O 	c #4B891C",
"P 	c #3D791A",
"Q 	c #37711A",
"R 	c #3C731B",
"S 	c #4E801E",
"T 	c #608F20",
"U 	c #679420",
"V 	c #54841E",
"W 	c #482010",
"X 	c #3F731A",
"Y 	c #477B1E",
"Z 	c #4A7E21",
"` 	c #4B7F22",
" .	c #4E8222",
"..	c #649828",
"+.	c #86B92F",
"@.	c #8CC02E",
"#.	c #84B92A",
"$.	c #6CA024",
"%.	c #4E8B20",
"&.	c #68A128",
"*.	c #74AC2A",
"=.	c #76AD27",
"-.	c #689F20",
";.	c #4F851D",
">.	c #3F741C",
",.	c #3D711C",
"'.	c #46781D",
").	c #54851F",
"!.	c #5E8E1F",
"~.	c #705840",
"{.	c #E8A088",
"].	c #2E6218",
"^.	c #2F631A",
"/.	c #33671A",
"(.	c #538622",
"_.	c #81B32C",
":.	c #8ABD2A",
"<.	c #84B826",
"[.	c #71A521",
"}.	c #599424",
"|.	c #75AD2C",
"1.	c #82B82E",
"2.	c #84B829",
"3.	c #74A721",
"4.	c #578A1E",
"5.	c #43761D",
"6.	c #3E711D",
"7.	c #42751C",
"8.	c #4A7E1D",
"9.	c #F8D8C8",
"0.	c #FFFFFF",
"a.	c #2F6218",
"b.	c #336719",
"c.	c #51831F",
"d.	c #7BAC29",
"e.	c #84B627",
"f.	c #80B324",
"g.	c #73A620",
"h.	c #70A82A",
"i.	c #85B930",
"j.	c #8BBE30",
"k.	c #87B92B",
"l.	c #74A622",
"m.	c #598B1D",
"n.	c #47781C",
"o.	c #41731C",
"p.	c #40741D",
"q.	c #987850",
"r.	c #4A791C",
"s.	c #5F8E20",
"t.	c #75A324",
"u.	c #7CAC24",
"v.	c #7CAD22",
"w.	c #77AA1F",
"x.	c #86B930",
"y.	c #96C636",
"z.	c #95C435",
"A.	c #84B52D",
"B.	c #6C9D22",
"C.	c #5A8B1E",
"D.	c #51811E",
"E.	c #4B7C1E",
"F.	c #63911F",
"G.	c #6D9921",
"H.	c #709C21",
"I.	c #74A120",
"J.	c #76A520",
"K.	c #77A81F",
"L.	c #8ABC32",
"M.	c #9ECD3A",
"N.	c #9AC839",
"O.	c #7FAE2F",
"P.	c #619222",
"Q.	c #5C8B1E",
"R.	c #5E8C1F",
"S.	c #59881F",
"T.	c #4A7B1E",
"U.	c #C87860",
"V.	c #5A8D1E",
"W.	c #6F9921",
"X.	c #709B21",
"Y.	c #719D21",
"Z.	c #729F21",
"`.	c #8ABC31",
" +	c #A1CF3B",
".+	c #9CCA3B",
"++	c #7BAB30",
"@+	c #598B22",
"#+	c #5B8A1F",
"$+	c #649120",
"%+	c #50801E",
"&+	c #62921F",
"*+	c #6F9A21",
"=+	c #85B72C",
"-+	c #9FCD38",
";+	c #73A72E",
">+	c #4E8421",
",+	c #679520",
"'+	c #6A9521",
")+	c #487E1B",
"!+	c #608E20",
"~+	c #6C9721",
"{+	c #70A324",
"]+	c #8FC031",
"^+	c #8DBE32",
"/+	c #669E29",
"(+	c #407B1D",
"_+	c #699620",
":+	c #719B21",
"<+	c #669220",
"[+	c #42751D",
"}+	c #51811F",
"|+	c #5A881F",
"1+	c #4B7F1C",
"2+	c #6DA023",
"3+	c #71A524",
"4+	c #568B1F",
"5+	c #396F1A",
"6+	c #4D7E1B",
"7+	c #6A9620",
"8+	c #729C21",
"9+	c #41731D",
"0+	c #46771D",
"a+	c #43761A",
"b+	c #52851B",
"c+	c #54881C",
"d+	c #487D1A",
"e+	c #41741A",
"f+	c #56841D",
"g+	c #6C9720",
"h+	c #719C21",
"i+	c #4F7F1D",
"j+	c #4E7E1D",
"k+	c #487A1E",
"l+	c #47791E",
"m+	c #4C7C1E",
"n+	c #46781A",
"o+	c #447819",
"p+	c #437719",
"q+	c #4B7B1B",
"r+	c #5E8B1F",
"s+	c #41731A",
"t+	c #59871E",
"u+	c #58871E",
"v+	c #4E7F1E",
"w+	c #4A7B1D",
"x+	c #51801C",
"y+	c #3F7119",
"z+	c #3B6E19",
"A+	c #46761A",
"B+	c #5A871E",
"C+	c #689320",
"D+	c #6E9921",
"E+	c #7088A0",
"F+	c #3C6F1B",
"G+	c #3C6E1B",
"H+	c #4D7F1D",
"I+	c #5D8D1E",
"J+	c #53821F",
"K+	c #5E8B1E",
"L+	c #53821C",
"M+	c #507F1C",
"N+	c #59861E",
"O+	c #679320",
"P+	c #C8D0F8",
"Q+	c #5C9025",
"R+	c #538923",
"S+	c #51871D",
"T+	c #618F20",
"U+	c #5D8B20",
"V+	c #64911F",
"W+	c #69941F",
"X+	c #699520",
"Y+	c #6A9621",
"Z+	c #6E9821",
"`+	c #E8F0F0",
" @	c #73A92A",
".@	c #549021",
"+@	c #48831B",
"@@	c #558A1E",
"#@	c #619020",
"$@	c #649220",
"%@	c #628F20",
"&@	c #66921F",
"*@	c #6E9A21",
"=@	c #7EB32C",
"-@	c #67A022",
";@	c #4F8B1C",
">@	c #447E1B",
",@	c #53871D",
"'@	c #6C9821",
")@	c #79AF2A",
"!@	c #6EA522",
"~@	c #56901C",
"{@	c #3F7C1A",
"]@	c #49801B",
"^@	c #51831C",
"/@	c #709A21",
"(@	c #66931F",
"_@	c #619A24",
":@	c #6B9F21",
"<@	c #61961D",
"[@	c #48801B",
"}@	c #43781A",
"|@	c #44761A",
"1@	c #45771B",
"2@	c #65931F",
"3@	c #5D901F",
"4@	c #6B9920",
"5@	c #62911F",
"6@	c #487A1B",
"7@	c #3D7019",
"8@	c #41741C",
"9@	c #5A891F",
"0@	c #5B891F",
"a@	c #54821D",
"b@	c #4A7A1C",
"c@	c #608E1F",
"d@	c #5D8A1F",
"e@	c #63901F",
"f@	c #507E1D",
"g@	c #43731B",
"h@	c #6F9B20",
"i@	c #61901F",
"j@	c #4E7D1D",
"k@	c #346618",
"l@	c #53811D",
"m@	c #618E1F",
"n@	c #4A811C",
"o@	c #6F9C20",
"p@	c #52811E",
"q@	c #628E20",
"r@	c #56851E",
"s@	c #49791C",
"t@	c #4B7D22",
"u@	c #48791E",
"v@	c #5D8B1F",
"w@	c #356F1A",
"x@	c #3B7519",
"y@	c #4A811B",
"z@	c #5C8D1E",
"A@	c #659320",
"B@	c #689420",
"C@	c #36701A",
"D@	c #39721A",
"E@	c #4D7F1E",
"F@	c #669120",
"G@	c #5F8B1F",
"H@	c #54811D",
"I@	c #6E9E2F",
"J@	c #568727",
"K@	c #497B22",
"L@	c #497A1E",
"M@	c #51801E",
"N@	c #507F1E",
"O@	c #4A7C1E",
"P@	c #44791D",
"Q@	c #3A741A",
"R@	c #337019",
"S@	c #447A1C",
"T@	c #50821D",
"U@	c #58881E",
"V@	c #5D8E1E",
"W@	c #5E8D1F",
"X@	c #5F8E1F",
"Y@	c #5F8D20",
"Z@	c #4B801D",
"`@	c #367319",
" #	c #326F19",
".#	c #3B741C",
"+#	c #50821E",
"@#	c #6A9520",
"##	c #5E8A1E",
"$#	c #87B536",
"%#	c #7BAB33",
"&#	c #6B9B2E",
"*#	c #538424",
"=#	c #45751D",
"-#	c #57871F",
";#	c #487C1C",
">#	c #346D19",
",#	c #336919",
"'#	c #356919",
")#	c #366C18",
"!#	c #3A7419",
"~#	c #3C7719",
"{#	c #417A1B",
"]#	c #487E1D",
"^#	c #5C8A1F",
"/#	c #5B8C1F",
"(#	c #4B821D",
"_#	c #407A1C",
":#	c #36711A",
"<#	c #447C1C",
"[#	c #67951F",
"}#	c #628D20",
"|#	c #91C039",
"1#	c #91BF39",
"2#	c #82B034",
"3#	c #5F9028",
"4#	c #43751D",
"5#	c #4C7C1C",
"6#	c #5D8C1F",
"7#	c #5F8D1F",
"8#	c #4E7F1D",
"9#	c #356C1A",
"0#	c #2E6419",
"a#	c #2D6319",
"b#	c #2D6618",
"c#	c #316F19",
"d#	c #337218",
"e#	c #397619",
"f#	c #427A1B",
"g#	c #4B7F1D",
"h#	c #58871F",
"i#	c #659020",
"j#	c #4D831D",
"k#	c #3A751B",
"l#	c #447C1B",
"m#	c #638F20",
". + @ # # # @ $ % % $ & & * = - ; > , ' ) ! ~ { ] ^ / ( _ : ",
"< [ } | 1 1 } 2 3 4 5 6 * 7 8 9 0 a b c d e f g h i h j k l ",
"m n o p q r s t 9 u u v w x y y y y y z A B C D E F G H I J ",
"K L M N O P Q R S T U V y W W W W W W W X Y Z `  ...+.@.#.$.",
"%.&.*.=.-.;.>.,.'.).!.y W W W ~.{.{.W {.~.].^.^./.(._.:.<.[.",
"}.|.1.2.3.4.5.6.7.8.y y W W ~.{.9.0.{.9.0.y a.a.b.c.d.e.f.g.",
"h.i.j.k.l.m.n.o.p.y ~.q.W W {.9.0.y {.0.y 0.y r.b s.t.u.v.w.",
"x.y.z.A.B.C.D.E.5.y {.9.W ~.{.9.0.y {.0.y 0.y } F.G.H.I.J.K.",
"L.M.N.O.P.Q.R.S.T.y {.9.~.{.9.9.{.{.U.{.U.U.{.y V.> W.X.Y.Z.",
"`. +.+++@+#+$+* %+y 9.9.9.9.9.{.9.9.{.q.{.q.{.U.y &+; 5 G.*+",
"=+-+N.;+>+m ,+'+#+y {.q.9.9.9.9.9.9.9.9.{.9.9.9.y )+= !+$ ~+",
"{+]+^+/+(+A _+:+<+y q.{.9.9.9.{.9.9.9.9.{.9.9.9.{.~.[+}+|+$+",
"1+2+3+4+5+6+7+8+y W y q.{.9.{.~.{.9.9.9.9.9.9.{.q.y 9+0+T.= ",
"a+b+c+d+e+f+g+h+y W W y q.{.9.{.~.~.y y y y y y y i+j+k+l+m+",
"n+o+o+p+q+r+4 :+y W W W y q.{.{.{.{.{.{.q.q.y s+i+t+u+v+T.w+",
"x+y+z+A+B+C+D+y E+y W W y y y y y y y y y y F+G+H+I+@ |+J+j+",
"K+L+M+N+O+D+X.y P+y W W W E+W W W W W W E+y Q+R+n S+3 <+T+U+",
"V+W+X+Y+Z+*+H.y P+y W W W y E+`+`+P+P+P+E+W y  @.@+@@@#@$@%@",
"&@W.*+*@Z+G.y y y P+y W W W y P+P+`+P+P+E+W y =@-@;@>@,@9 u+",
"&@*+*+'@X+y y W y P+y W W W W y E+P+P+E+W W y )@!@~@{@]@^@i+",
"U /@D+(@y {.y W W y P+y W W W q.y E+E+y y y y _@:@<@[@}@|@1@",
"2@G.% U+y {.y W W y E+y y q.U.{.q.y y {.q.{.y y 3@4@5@6@7@8@",
"9@<+C+0@y U.{.y W W y y {.9.9.9.{.y {.U.~.q.{.y $@D+g+K+a@b@",
"i+c@+ d@y U.{.{.y W y y {.9.9.9.{.y U.q.~.~.~.y 5 *+W.7+e@f@",
"g@0@+ %@y q.U.{.U.y h@y {.{.{.q.q.y q.~.~.~.~.y % *+W._+i@j@",
"k@l@m@O+y q.~.U.y n@_+o@y y y y y q.q.~.~.~.y p@q@G.4 !+r@s@",
"t@u@s@a@v@y y y w@x@y@z@A@'@*@D+B@y y y y y C@D@E@!+% F@G@H@",
"I@J@K@L@M@N@O@Y P@Q@R@S@T@U@z@V@V@W@X@%@Y@Z@`@ #.#+#& 4 @###",
"$#%#&#*#=#j@|+U+-#;#>#,#'#)#!#~#{#]#+#^#6 /#(#_#:#<#[#X.4 }#",
"|#1#2#3#4#5#6#@ 7#8#9#0#a#b#c#d#e#f#g#h#i#F.C.j#k#l#[#H.D+m#"};
