/* XPM */
static char * player_l_r_xpm[] = {
"30 30 412 2",
"  	c None",
". 	c #285C16",
"+ 	c #1B5015",
"@ 	c #1A4F15",
"# 	c #1F5416",
"$ 	c #205516",
"% 	c #235717",
"& 	c #275C17",
"* 	c #285D17",
"= 	c #2B6016",
"- 	c #396D18",
"; 	c #57861C",
"> 	c #69961E",
", 	c #6D9920",
"' 	c #689421",
") 	c #5D8A20",
"! 	c #55841F",
"~ 	c #618E20",
"{ 	c #699521",
"] 	c #669320",
"^ 	c #6B9621",
"/ 	c #639120",
"( 	c #618F1F",
"_ 	c #659220",
": 	c #639220",
"< 	c #3F721C",
"[ 	c #3E721D",
"} 	c #3E731D",
"| 	c #3F741E",
"1 	c #3F731E",
"2 	c #41761E",
"3 	c #41751D",
"4 	c #3F741B",
"5 	c #417419",
"6 	c #48791A",
"7 	c #4F7E1C",
"8 	c #53821E",
"9 	c #59871F",
"0 	c #5B8B1E",
"a 	c #5A8C1F",
"b 	c #5D8C1E",
"c 	c #659120",
"d 	c #6B9721",
"e 	c #6D9821",
"f 	c #669420",
"g 	c #5A8B1F",
"h 	c #53871E",
"i 	c #4E841D",
"j 	c #4E841C",
"k 	c #598B1E",
"l 	c #5F8F1F",
"m 	c #5D9023",
"n 	c #70A328",
"o 	c #75A82A",
"p 	c #72A52A",
"q 	c #689C28",
"r 	c #629626",
"s 	c #629627",
"t 	c #619526",
"u 	c #5D9121",
"v 	c #4F831C",
"w 	c #396D19",
"x 	c #356818",
"y 	c #3B6D19",
"z 	c #4D7F1D",
"A 	c #62941F",
"B 	c #699C1F",
"C 	c #598A1D",
"D 	c #55831E",
"E 	c #5B881F",
"F 	c #6B9620",
"G 	c #457D1C",
"H 	c #3B771B",
"I 	c #367519",
"J 	c #38781A",
"K 	c #3B7A1B",
"L 	c #417E1C",
"M 	c #49821D",
"N 	c #55881E",
"O 	c #6CA024",
"P 	c #84B92A",
"Q 	c #8CC02E",
"R 	c #86B92F",
"S 	c #649828",
"T 	c #4E8222",
"U 	c #4B7F22",
"V 	c #4A7E21",
"W 	c #477B1E",
"X 	c #000000",
"Y 	c #6FA21F",
"Z 	c #72A51F",
"` 	c #578A1D",
" .	c #54841E",
"..	c #679420",
"+.	c #608F20",
"@.	c #4E801E",
"#.	c #3C731B",
"$.	c #37711A",
"%.	c #3D791A",
"&.	c #4B891C",
"*.	c #549121",
"=.	c #569223",
"-.	c #538E22",
";.	c #4C851E",
">.	c #71A521",
",.	c #84B826",
"'.	c #8ABD2A",
").	c #81B32C",
"!.	c #538622",
"~.	c #33671A",
"{.	c #2F631A",
"].	c #482010",
"^.	c #578A1E",
"/.	c #4B7D1D",
"(.	c #4F811D",
"_.	c #5E8E1F",
":.	c #54851F",
"<.	c #46781D",
"[.	c #3D711C",
"}.	c #3F741C",
"|.	c #4F851D",
"1.	c #689F20",
"2.	c #76AD27",
"3.	c #74AC2A",
"4.	c #68A128",
"5.	c #4E8B20",
"6.	c #73A620",
"7.	c #80B324",
"8.	c #84B627",
"9.	c #7BAC29",
"0.	c #51831F",
"a.	c #336719",
"b.	c #2F6218",
"c.	c #705840",
"d.	c #E8A088",
"e.	c #487B1D",
"f.	c #487C1D",
"g.	c #50861E",
"h.	c #4A7E1D",
"i.	c #42751C",
"j.	c #3E711D",
"k.	c #43761D",
"l.	c #74A721",
"m.	c #84B829",
"n.	c #82B82E",
"o.	c #75AD2C",
"p.	c #599424",
"q.	c #77AA1F",
"r.	c #7CAD22",
"s.	c #7CAC24",
"t.	c #75A324",
"u.	c #5F8E20",
"v.	c #F8F8F8",
"w.	c #F8D8C8",
"x.	c #39721A",
"y.	c #39751A",
"z.	c #3D741B",
"A.	c #40741D",
"B.	c #41731C",
"C.	c #47781C",
"D.	c #598B1D",
"E.	c #74A622",
"F.	c #87B92B",
"G.	c #8BBE30",
"H.	c #85B930",
"I.	c #70A82A",
"J.	c #77A81F",
"K.	c #76A520",
"L.	c #74A120",
"M.	c #709C21",
"N.	c #6D9921",
"O.	c #987850",
"P.	c #2C6B19",
"Q.	c #376F1A",
"R.	c #4B7C1E",
"S.	c #51811E",
"T.	c #5A8B1E",
"U.	c #6C9D22",
"V.	c #84B52D",
"W.	c #95C435",
"X.	c #96C636",
"Y.	c #86B930",
"Z.	c #729F21",
"`.	c #719D21",
" +	c #709B21",
".+	c #6F9921",
"++	c #356E1A",
"@+	c #4A7B1E",
"#+	c #59881F",
"$+	c #5E8C1F",
"%+	c #5C8B1E",
"&+	c #619222",
"*+	c #7FAE2F",
"=+	c #9AC839",
"-+	c #9ECD3A",
";+	c #8ABC32",
">+	c #6F9A21",
",+	c #C87860",
"'+	c #366F1B",
")+	c #50801E",
"!+	c #649120",
"~+	c #5B8A1F",
"{+	c #598B22",
"]+	c #7BAB30",
"^+	c #9CCA3B",
"/+	c #A1CF3B",
"(+	c #8ABC31",
"_+	c #6C9721",
":+	c #608E20",
"<+	c #2C6A19",
"[+	c #457A1B",
"}+	c #6A9521",
"|+	c #679520",
"1+	c #4E8421",
"2+	c #73A72E",
"3+	c #9FCD38",
"4+	c #85B72C",
"5+	c #5A881F",
"6+	c #51811F",
"7+	c #1F6416",
"8+	c #477E1C",
"9+	c #669220",
"0+	c #719B21",
"a+	c #699620",
"b+	c #407B1D",
"c+	c #669E29",
"d+	c #8DBE32",
"e+	c #8FC031",
"f+	c #70A324",
"g+	c #48811C",
"h+	c #729C21",
"i+	c #6A9620",
"j+	c #4D7E1B",
"k+	c #396F1A",
"l+	c #568B1F",
"m+	c #71A524",
"n+	c #6DA023",
"o+	c #4B7F1C",
"p+	c #4C7C1E",
"q+	c #47791E",
"r+	c #719C21",
"s+	c #6C9720",
"t+	c #56841D",
"u+	c #41741A",
"v+	c #487D1A",
"w+	c #54881C",
"x+	c #52851B",
"y+	c #43761A",
"z+	c #4A7B1D",
"A+	c #4E7F1E",
"B+	c #5E8B1F",
"C+	c #4B7B1B",
"D+	c #437719",
"E+	c #447819",
"F+	c #46781A",
"G+	c #4E7E1D",
"H+	c #53821F",
"I+	c #5D8D1E",
"J+	c #6E9921",
"K+	c #689320",
"L+	c #5A871E",
"M+	c #46761A",
"N+	c #3B6E19",
"O+	c #3F7119",
"P+	c #51801C",
"Q+	c #5D8B20",
"R+	c #618F20",
"S+	c #51871D",
"T+	c #C8D0F8",
"U+	c #679320",
"V+	c #59861E",
"W+	c #507F1C",
"X+	c #53821C",
"Y+	c #5E8B1E",
"Z+	c #628F20",
"`+	c #649220",
" @	c #619020",
".@	c #558A1E",
"+@	c #7088A0",
"@@	c #E8F0F0",
"#@	c #6E9821",
"$@	c #6A9621",
"%@	c #699520",
"&@	c #69941F",
"*@	c #64911F",
"=@	c #58871E",
"-@	c #53871D",
";@	c #FFFFFF",
">@	c #6E9A21",
",@	c #66921F",
"'@	c #4F7F1D",
")@	c #51831C",
"!@	c #6C9821",
"~@	c #45771B",
"{@	c #44761A",
"]@	c #709A21",
"^@	c #41741C",
"/@	c #3C7A1C",
"(@	c #51881D",
"_@	c #65931F",
":@	c #4A7A1C",
"<@	c #52871E",
"[@	c #5C8D1F",
"}@	c #629120",
"|@	c #5A891F",
"1@	c #507E1D",
"2@	c #65921F",
"3@	c #608D1F",
"4@	c #4F7F1E",
"5@	c #608E1F",
"6@	c #4E7D1D",
"7@	c #659020",
"8@	c #628E20",
"9@	c #5F8C1F",
"0@	c #56851E",
"a@	c #497A1E",
"b@	c #35721A",
"c@	c #5B891F",
"d@	c #43731B",
"e@	c #49791C",
"f@	c #52811E",
"g@	c #4B7C1D",
"h@	c #497A1C",
"i@	c #48791D",
"j@	c #45771D",
"k@	c #4A7A1D",
"l@	c #346D1B",
"m@	c #3A701C",
"n@	c #4A7C1D",
"o@	c #618E1F",
"p@	c #53811D",
"q@	c #346618",
"r@	c #54811D",
"s@	c #5F8B1F",
"t@	c #669120",
"u@	c #4D7F1E",
"v@	c #36701A",
"w@	c #43781B",
"x@	c #52821E",
"y@	c #57861F",
"z@	c #5C8A1E",
"A@	c #386F1B",
"B@	c #40741C",
"C@	c #51801E",
"D@	c #5D8B1F",
"E@	c #54821D",
"F@	c #48791E",
"G@	c #4B7D22",
"H@	c #5E8A1E",
"I@	c #6A9520",
"J@	c #50821E",
"K@	c #3B741C",
"L@	c #326F19",
"M@	c #367319",
"N@	c #4B801D",
"O@	c #5F8D20",
"P@	c #5F8E1F",
"Q@	c #5E8D1F",
"R@	c #5D8E1E",
"S@	c #44791D",
"T@	c #4A7C1E",
"U@	c #507F1E",
"V@	c #497B22",
"W@	c #568727",
"X@	c #6E9E2F",
"Y@	c #628D20",
"Z@	c #67951F",
"`@	c #447C1C",
" #	c #36711A",
".#	c #407A1C",
"+#	c #4B821D",
"@#	c #5B8C1F",
"##	c #5C8A1F",
"$#	c #487E1D",
"%#	c #417A1B",
"&#	c #3C7719",
"*#	c #3A7419",
"=#	c #366C18",
"-#	c #356919",
";#	c #336919",
">#	c #346D19",
",#	c #487C1C",
"'#	c #57871F",
")#	c #45751D",
"!#	c #538424",
"~#	c #6B9B2E",
"{#	c #7BAB33",
"]#	c #87B536",
"^#	c #638F20",
"/#	c #447C1B",
"(#	c #3A751B",
"_#	c #4D831D",
":#	c #63911F",
"<#	c #58871F",
"[#	c #4B7F1D",
"}#	c #427A1B",
"|#	c #397619",
"1#	c #337218",
"2#	c #316F19",
"3#	c #2D6618",
"4#	c #2D6319",
"5#	c #2E6419",
"6#	c #356C1A",
"7#	c #4E7F1D",
"8#	c #5F8D1F",
"9#	c #5D8C1F",
"0#	c #4C7C1C",
"a#	c #43751D",
"b#	c #5F9028",
"c#	c #82B034",
"d#	c #91BF39",
"e#	c #91C039",
". + @ # $ % & * = - ; > , ' ) ! ~ { { ] ^ ^ ] / ( ( ( / _ : ",
"< [ } | 1 | 2 3 4 5 6 7 8 9 0 a b ~ c d e f g h i i j h k l ",
"m n o p q r s t u v w x y z A B C D E F F 0 G H I J K L M N ",
"O P Q R S T U V W X X X X X Y Z ` z  ...+.@.#.$.%.&.*.=.-.;.",
">.,.'.).!.~.{.{.X ].].].].].].X ^./.(._.:.<.[.}.|.1.2.3.4.5.",
"6.7.8.9.0.a.b.c.d.].d.d.c.].].].X e.f.g.h.i.j.k.^.l.m.n.o.p.",
"q.r.s.t.u.7 X v.w.d.v.w.d.c.].].X X x.y.z.A.B.C.D.E.F.G.H.I.",
"J.K.L.M.N.X v.X v.d.X v.w.d.].].O.c.X P.Q.k.R.S.T.U.V.W.X.Y.",
"Z.`. +.+, X v.X v.d.X v.w.d.c.].w.d.X ++[.@+#+$+%+&+*+=+-+;+",
">+N.d ' X d.,+,+d.,+d.d.w.w.d.c.w.d.X '+3 )+~ !+~+{+]+^+/+(+",
"_+] :+X ,+d.O.d.O.d.w.w.d.w.w.w.w.w.X <+[+~+}+|+N 1+2+=+3+4+",
"!+5+6+X w.w.w.d.w.w.w.w.w.w.w.w.O.d.X 7+8+9+0+a+v b+c+d+e+f+",
"! @+c.d.w.w.w.d.w.w.w.w.d.w.w.w.d.O.X X g+..h+i+j+k+l+m+n+o+",
"p+q+X O.d.w.w.w.w.w.w.d.c.d.w.d.O.X ].].X i+r+s+t+u+v+w+x+y+",
"z+@+A+X X X X X X X c.c.d.w.d.O.X ].].].].X 0+e B+C+D+E+E+F+",
"G+H+5+/ I+X O.O.d.d.d.d.d.d.O.X ].].].].].X M.J+K+L+M+N+O+P+",
"Q+R+9+f S+X X X X X X X X X X T+X ].].].].].X  +J+U+V+W+X+Y+",
"Z+`+ @.@X ].].+@].].].].].].@@T++@X ].].].].X M.>+#@$@%@&@*@",
"=@0 -@X ].].].X ;@T+T+T+T+@@@@T+T++@X ].].].].X N.#@>@>+.+,@",
"'@)@X ].].].].X ;@T+T+@@@@@@T+T+T++@+@X ].].].c.X X !@>+>+,@",
"~@{@X ,+].].X X X +@T+T+T+@@T+T++@+@X X X ].c.d.w.d.X J+]@..",
"^@X ,+d.].,+X /@(@X +@T+T+T++@+@X X ].].X ].d.w.w.d.X ^ N._@",
":@X d.d.,+O.X <@[@}@X +@+@T+X X ].].].].].X O.d.d.O.X K+9+|@",
"1@X ,+,+X X X 2@_ 3@4@X ].+@X ].X ].X ].].X X O.O.O.X _ 5@'@",
"6@X O.O.O.X 7@8@9@0@a@X ].].X O.O.X O.X X X b@X X X Z+_ c@d@",
"e@0@X X X 8@f@g@h@i@j@k@X ].O.,+,+,+,+,+d.X l@m@n@$+U+o@p@q@",
"r@s@t@^ :+u@x.v@w@x@y@z@5@X ,+O.c.,+d.,+d.X A@B@C@D@E@e@F@G@",
"H@I@e { J@K@L@M@N@O@Z+P@Q@R@X X X X X X X S@W T@U@C@a@V@W@X@",
"Y@e  +Z@`@ #.#+#@#c ##J@$#%#&#*#=#-#;#>#,#'#Q+5+6@)#!#~#{#]#",
"^#J+M.Z@/#(#_#T.:#7@<#[#}#|#1#2#3#4#5#6#7#8#/ 9#0#a#b#c#d#e#"};
