/* XPM */
static char * grass_xpm[] = {
"30 30 651 2",
"  	c None",
". 	c #639220",
"+ 	c #659220",
"@ 	c #639120",
"# 	c #618F1F",
"$ 	c #669320",
"% 	c #6B9621",
"& 	c #699521",
"* 	c #618E20",
"= 	c #55841F",
"- 	c #5D8A20",
"; 	c #689421",
"> 	c #6D9920",
", 	c #69961E",
"' 	c #57861C",
") 	c #396D18",
"! 	c #2B6016",
"~ 	c #285D17",
"{ 	c #275C17",
"] 	c #235717",
"^ 	c #205516",
"/ 	c #1F5416",
"( 	c #1A4F15",
"_ 	c #1B5015",
": 	c #285C16",
"< 	c #5F8F1F",
"[ 	c #598B1E",
"} 	c #53871E",
"| 	c #4E841C",
"1 	c #4E841D",
"2 	c #5A8B1F",
"3 	c #669420",
"4 	c #6D9821",
"5 	c #6B9721",
"6 	c #659120",
"7 	c #5D8C1E",
"8 	c #5A8C1F",
"9 	c #5B8B1E",
"0 	c #59871F",
"a 	c #53821E",
"b 	c #4F7E1C",
"c 	c #48791A",
"d 	c #417419",
"e 	c #3F741B",
"f 	c #41751D",
"g 	c #41761E",
"h 	c #3F741E",
"i 	c #3F731E",
"j 	c #3E731D",
"k 	c #3E721D",
"l 	c #3F721C",
"m 	c #55881E",
"n 	c #49821D",
"o 	c #417E1C",
"p 	c #3B7A1B",
"q 	c #38781A",
"r 	c #367519",
"s 	c #3B771B",
"t 	c #457D1C",
"u 	c #6B9620",
"v 	c #5B881F",
"w 	c #55831E",
"x 	c #598A1D",
"y 	c #699C1F",
"z 	c #62941F",
"A 	c #4D7F1D",
"B 	c #3B6D19",
"C 	c #356818",
"D 	c #396D19",
"E 	c #4F831C",
"F 	c #5D9121",
"G 	c #619526",
"H 	c #629627",
"I 	c #629626",
"J 	c #689C28",
"K 	c #72A52A",
"L 	c #75A82A",
"M 	c #70A328",
"N 	c #5D9023",
"O 	c #4C851E",
"P 	c #538E22",
"Q 	c #569223",
"R 	c #549121",
"S 	c #4B891C",
"T 	c #3D791A",
"U 	c #37711A",
"V 	c #3C731B",
"W 	c #4E801E",
"X 	c #608F20",
"Y 	c #679420",
"Z 	c #54841E",
"` 	c #578A1D",
" .	c #72A51F",
"..	c #6FA21F",
"+.	c #598B1D",
"@.	c #42751A",
"#.	c #376B19",
"$.	c #336718",
"%.	c #3F731A",
"&.	c #477B1E",
"*.	c #4A7E21",
"=.	c #4B7F22",
"-.	c #4E8222",
";.	c #649828",
">.	c #86B92F",
",.	c #8CC02E",
"'.	c #84B92A",
").	c #6CA024",
"!.	c #4E8B20",
"~.	c #68A128",
"{.	c #74AC2A",
"].	c #76AD27",
"^.	c #689F20",
"/.	c #4F851D",
"(.	c #3F741C",
"_.	c #3D711C",
":.	c #46781D",
"<.	c #54851F",
"[.	c #5E8E1F",
"}.	c #4F811D",
"|.	c #4B7D1D",
"1.	c #578A1E",
"2.	c #74A720",
"3.	c #7AAD20",
"4.	c #6A9C1E",
"5.	c #53851D",
"6.	c #45761C",
"7.	c #36681A",
"8.	c #2F6318",
"9.	c #2E6218",
"0.	c #2F631A",
"a.	c #33671A",
"b.	c #538622",
"c.	c #81B32C",
"d.	c #8ABD2A",
"e.	c #84B826",
"f.	c #71A521",
"g.	c #599424",
"h.	c #75AD2C",
"i.	c #82B82E",
"j.	c #84B829",
"k.	c #74A721",
"l.	c #43761D",
"m.	c #3E711D",
"n.	c #42751C",
"o.	c #4A7E1D",
"p.	c #50861E",
"q.	c #487C1D",
"r.	c #487B1D",
"s.	c #56891E",
"t.	c #75A820",
"u.	c #7EB120",
"v.	c #6FA31F",
"w.	c #598C1E",
"x.	c #3C6D1B",
"y.	c #336518",
"z.	c #2F6218",
"A.	c #336719",
"B.	c #51831F",
"C.	c #7BAC29",
"D.	c #84B627",
"E.	c #80B324",
"F.	c #73A620",
"G.	c #70A82A",
"H.	c #85B930",
"I.	c #8BBE30",
"J.	c #87B92B",
"K.	c #74A622",
"L.	c #47781C",
"M.	c #41731C",
"N.	c #40741D",
"O.	c #3D741B",
"P.	c #39751A",
"Q.	c #39721A",
"R.	c #3F751B",
"S.	c #53861C",
"T.	c #73A71F",
"U.	c #7DB120",
"V.	c #70A41F",
"W.	c #5A8D1E",
"X.	c #47781D",
"Y.	c #4A7B1B",
"Z.	c #4B7B1C",
"`.	c #49791C",
" +	c #4A791C",
".+	c #5F8E20",
"++	c #75A324",
"@+	c #7CAC24",
"#+	c #7CAD22",
"$+	c #77AA1F",
"%+	c #86B930",
"&+	c #96C636",
"*+	c #95C435",
"=+	c #84B52D",
"-+	c #6C9D22",
";+	c #5A8B1E",
">+	c #51811E",
",+	c #4B7C1E",
"'+	c #376F1A",
")+	c #2C6B19",
"!+	c #2C6A19",
"~+	c #336F1A",
"{+	c #49801C",
"]+	c #6DA01F",
"^+	c #7BAD20",
"/+	c #70A21F",
"(+	c #50821D",
"_+	c #50801D",
":+	c #5E8C1F",
"<+	c #5B8D1E",
"[+	c #51861D",
"}+	c #63911F",
"|+	c #6D9921",
"1+	c #709C21",
"2+	c #74A120",
"3+	c #76A520",
"4+	c #77A81F",
"5+	c #8ABC32",
"6+	c #9ECD3A",
"7+	c #9AC839",
"8+	c #7FAE2F",
"9+	c #619222",
"0+	c #5C8B1E",
"a+	c #59881F",
"b+	c #4A7B1E",
"c+	c #356E1A",
"d+	c #2A6919",
"e+	c #2B6B19",
"f+	c #3E791A",
"g+	c #65971E",
"h+	c #77A720",
"i+	c #6EA11E",
"j+	c #598C1D",
"k+	c #51811D",
"l+	c #5B8C1F",
"m+	c #4D841C",
"n+	c #37751A",
"o+	c #3B781B",
"p+	c #6F9921",
"q+	c #709B21",
"r+	c #719D21",
"s+	c #729F21",
"t+	c #8ABC31",
"u+	c #A1CF3B",
"v+	c #9CCA3B",
"w+	c #7BAB30",
"x+	c #598B22",
"y+	c #5B8A1F",
"z+	c #649120",
"A+	c #50801E",
"B+	c #366F1B",
"C+	c #276819",
"D+	c #256818",
"E+	c #37741A",
"F+	c #5C8E1E",
"G+	c #71A020",
"H+	c #6D9E1F",
"I+	c #54861E",
"J+	c #55841D",
"K+	c #447E1B",
"L+	c #296C18",
"M+	c #2C6E19",
"N+	c #4C841C",
"O+	c #62921F",
"P+	c #6F9A21",
"Q+	c #85B72C",
"R+	c #9FCD38",
"S+	c #73A72E",
"T+	c #4E8421",
"U+	c #679520",
"V+	c #6A9521",
"W+	c #457A1B",
"X+	c #1F6417",
"Y+	c #206617",
"Z+	c #2F6F19",
"`+	c #659320",
" @	c #6A9920",
".@	c #649320",
"+@	c #618F20",
"@@	c #618E1E",
"#@	c #5F8E1E",
"$@	c #437D1A",
"%@	c #246A16",
"&@	c #216816",
"*@	c #367419",
"=@	c #487E1B",
"-@	c #608E20",
";@	c #6C9721",
">@	c #70A324",
",@	c #8FC031",
"'@	c #8DBE32",
")@	c #669E29",
"!@	c #407B1D",
"~@	c #699620",
"{@	c #719B21",
"]@	c #669220",
"^@	c #477E1C",
"/@	c #1F6416",
"(@	c #186115",
"_@	c #1C6316",
":@	c #2B6B18",
"<@	c #477A1D",
"[@	c #6A9621",
"}@	c #6C9821",
"|@	c #659420",
"1@	c #4C831C",
"2@	c #337418",
"3@	c #2A6D17",
"4@	c #2A6C18",
"5@	c #326D1A",
"6@	c #42751D",
"7@	c #51811F",
"8@	c #5A881F",
"9@	c #4B7F1C",
"0@	c #6DA023",
"a@	c #71A524",
"b@	c #568B1F",
"c@	c #396F1A",
"d@	c #4D7E1B",
"e@	c #6A9620",
"f@	c #729C21",
"g@	c #48811C",
"h@	c #206716",
"i@	c #196316",
"j@	c #206717",
"k@	c #347319",
"l@	c #57891E",
"m@	c #6E9921",
"n@	c #6F9B21",
"o@	c #61911F",
"p@	c #56881E",
"q@	c #4E811D",
"r@	c #42781B",
"s@	c #3D721B",
"t@	c #41731D",
"u@	c #46771D",
"v@	c #43761A",
"w@	c #52851B",
"x@	c #54881C",
"y@	c #487D1A",
"z@	c #41741A",
"A@	c #56841D",
"B@	c #6C9720",
"C@	c #719C21",
"D@	c #54871D",
"E@	c #327218",
"F@	c #377519",
"G@	c #47801C",
"H@	c #729E21",
"I@	c #739F21",
"J@	c #6B9720",
"K@	c #5C8A1F",
"L@	c #4D7E1D",
"M@	c #4F7F1D",
"N@	c #4E7E1D",
"O@	c #487A1E",
"P@	c #47791E",
"Q@	c #4C7C1E",
"R@	c #46781A",
"S@	c #447819",
"T@	c #437719",
"U@	c #4B7B1B",
"V@	c #5E8B1F",
"W@	c #5C8D1F",
"X@	c #467F1B",
"Y@	c #49811C",
"Z@	c #54881E",
"`@	c #689620",
" #	c #74A121",
".#	c #75A421",
"+#	c #74A321",
"@#	c #699720",
"##	c #55841E",
"$#	c #42741A",
"%#	c #41731A",
"&#	c #59871E",
"*#	c #58871E",
"=#	c #4E7F1E",
"-#	c #4A7B1D",
";#	c #51801C",
">#	c #3F7119",
",#	c #3B6E19",
"'#	c #46761A",
")#	c #5A871E",
"!#	c #689320",
"~#	c #6F9C21",
"{#	c #699820",
"]#	c #60911E",
"^#	c #60901E",
"/#	c #76A620",
"(#	c #79A91F",
"_#	c #78A81F",
":#	c #6C9A1F",
"<#	c #52831D",
"[#	c #3C6F1B",
"}#	c #3C6E1B",
"|#	c #5D8D1E",
"1#	c #53821F",
"2#	c #5E8B1E",
"3#	c #53821C",
"4#	c #507F1C",
"5#	c #59861E",
"6#	c #679320",
"7#	c #75A21F",
"8#	c #73A11F",
"9#	c #78A820",
"0#	c #7BAD1F",
"a#	c #7CAF1F",
"b#	c #76A820",
"c#	c #699C23",
"d#	c #5C9025",
"e#	c #538923",
"f#	c #51871D",
"g#	c #5D8B20",
"h#	c #64911F",
"i#	c #69941F",
"j#	c #699520",
"k#	c #6E9821",
"l#	c #76A51F",
"m#	c #73A021",
"n#	c #719E21",
"o#	c #76A421",
"p#	c #78A821",
"q#	c #7EB122",
"r#	c #81B427",
"s#	c #80B42C",
"t#	c #73A92A",
"u#	c #549021",
"v#	c #48831B",
"w#	c #558A1E",
"x#	c #619020",
"y#	c #649220",
"z#	c #628F20",
"A#	c #66921F",
"B#	c #6E9A21",
"C#	c #77A621",
"D#	c #77A620",
"E#	c #73A121",
"F#	c #74A221",
"G#	c #77A821",
"H#	c #7DB122",
"I#	c #84B828",
"J#	c #86BA2E",
"K#	c #7EB32C",
"L#	c #67A022",
"M#	c #4F8B1C",
"N#	c #53871D",
"O#	c #689420",
"P#	c #709D21",
"Q#	c #79A820",
"R#	c #72A021",
"S#	c #7AAD22",
"T#	c #7DB227",
"U#	c #7DB22C",
"V#	c #79AF2A",
"W#	c #6EA522",
"X#	c #56901C",
"Y#	c #3F7C1A",
"Z#	c #49801B",
"`#	c #51831C",
" $	c #709A21",
".$	c #66931F",
"+$	c #5E8C1E",
"@$	c #5A881E",
"#$	c #6A9721",
"$$	c #77A721",
"%$	c #75A521",
"&$	c #73A221",
"*$	c #65911F",
"=$	c #67921F",
"-$	c #72A321",
";$	c #699F23",
">$	c #609925",
",$	c #619A24",
"'$	c #6B9F21",
")$	c #61961D",
"!$	c #48801B",
"~$	c #43781A",
"{$	c #44761A",
"]$	c #45771B",
"^$	c #65931F",
"/$	c #4B7C1D",
"($	c #43761C",
"_$	c #477A1C",
":$	c #639020",
"<$	c #79AB1F",
"[$	c #78A91F",
"}$	c #719E20",
"|$	c #5D8B1E",
"1$	c #54821E",
"2$	c #51881D",
"3$	c #3C7A1C",
"4$	c #407D1C",
"5$	c #5D901F",
"6$	c #6B9920",
"7$	c #62911F",
"8$	c #487A1B",
"9$	c #3D7019",
"0$	c #41741C",
"a$	c #5A891F",
"b$	c #5B891F",
"c$	c #44781C",
"d$	c #357019",
"e$	c #40791A",
"f$	c #5B8C1E",
"g$	c #6D9721",
"h$	c #7BAC1F",
"i$	c #76A720",
"j$	c #5E8F1F",
"k$	c #4C7C1D",
"l$	c #507F1D",
"m$	c #5A891E",
"n$	c #629120",
"o$	c #52871E",
"p$	c #54821D",
"q$	c #4A7A1C",
"r$	c #608E1F",
"s$	c #5D8A1F",
"t$	c #326E19",
"u$	c #2E6D18",
"v$	c #387519",
"w$	c #77A520",
"x$	c #7AAA1F",
"y$	c #7CAD1F",
"z$	c #78AB20",
"A$	c #62941E",
"B$	c #4E7F1D",
"C$	c #4F7F1E",
"D$	c #608D1F",
"E$	c #65921F",
"F$	c #63901F",
"G$	c #507E1D",
"H$	c #43731B",
"I$	c #306E19",
"J$	c #35721A",
"K$	c #477F1C",
"L$	c #5E8F1E",
"M$	c #6F9B20",
"N$	c #75A320",
"O$	c #78A920",
"P$	c #77A820",
"Q$	c #66961F",
"R$	c #53831E",
"S$	c #44751D",
"T$	c #497A1E",
"U$	c #56851E",
"V$	c #5F8C1F",
"W$	c #628E20",
"X$	c #659020",
"Y$	c #61901F",
"Z$	c #4E7D1D",
"`$	c #346618",
" %	c #53811D",
".%	c #618E1F",
"+%	c #4A7C1D",
"@%	c #3A701C",
"#%	c #346D1B",
"$%	c #36721A",
"%%	c #4A811C",
"&%	c #6F9C20",
"*%	c #709D20",
"=%	c #6C9921",
"-%	c #608C20",
";%	c #51801E",
">%	c #4A7A1D",
",%	c #45771D",
"'%	c #48791D",
")%	c #497A1C",
"!%	c #52811E",
"~%	c #4B7D22",
"{%	c #48791E",
"]%	c #5D8B1F",
"^%	c #40741C",
"/%	c #386F1B",
"(%	c #356F1A",
"_%	c #3B7519",
":%	c #4A811B",
"<%	c #5C8D1E",
"[%	c #5C8A1E",
"}%	c #57861F",
"|%	c #52821E",
"1%	c #43781B",
"2%	c #36701A",
"3%	c #4D7F1E",
"4%	c #669120",
"5%	c #5F8B1F",
"6%	c #54811D",
"7%	c #6E9E2F",
"8%	c #568727",
"9%	c #497B22",
"0%	c #507F1E",
"a%	c #4A7C1E",
"b%	c #44791D",
"c%	c #3A741A",
"d%	c #337019",
"e%	c #447A1C",
"f%	c #58881E",
"g%	c #5D8E1E",
"h%	c #5E8D1F",
"i%	c #5F8E1F",
"j%	c #5F8D20",
"k%	c #4B801D",
"l%	c #367319",
"m%	c #326F19",
"n%	c #3B741C",
"o%	c #50821E",
"p%	c #6A9520",
"q%	c #5E8A1E",
"r%	c #87B536",
"s%	c #7BAB33",
"t%	c #6B9B2E",
"u%	c #538424",
"v%	c #45751D",
"w%	c #57871F",
"x%	c #487C1C",
"y%	c #346D19",
"z%	c #336919",
"A%	c #356919",
"B%	c #366C18",
"C%	c #3A7419",
"D%	c #3C7719",
"E%	c #417A1B",
"F%	c #487E1D",
"G%	c #4B821D",
"H%	c #407A1C",
"I%	c #36711A",
"J%	c #447C1C",
"K%	c #67951F",
"L%	c #628D20",
"M%	c #91C039",
"N%	c #91BF39",
"O%	c #82B034",
"P%	c #5F9028",
"Q%	c #43751D",
"R%	c #4C7C1C",
"S%	c #5D8C1F",
"T%	c #5F8D1F",
"U%	c #356C1A",
"V%	c #2E6419",
"W%	c #2D6319",
"X%	c #2D6618",
"Y%	c #316F19",
"Z%	c #337218",
"`%	c #397619",
" &	c #427A1B",
".&	c #4B7F1D",
"+&	c #58871F",
"@&	c #4D831D",
"#&	c #3A751B",
"$&	c #447C1B",
"%&	c #638F20",
". + @ # # # @ $ % % $ & & * = - ; > , ' ) ! ~ { ] ^ / ( _ : ",
"< [ } | 1 1 } 2 3 4 5 6 * 7 8 9 0 a b c d e f g h i h j k l ",
"m n o p q r s t 9 u u v w x y z A B C D E F G H I J K L M N ",
"O P Q R S T U V W X Y Z A `  ...+.@.#.$.%.&.*.=.-.;.>.,.'.).",
"!.~.{.].^./.(._.:.<.[.}.|.1.2.3.4.5.6.7.8.9.0.0.a.b.c.d.e.f.",
"g.h.i.j.k.1.l.m.n.o.p.q.r.s.t.u.v.w.|.x.y.z.z.z.A.B.C.D.E.F.",
"G.H.I.J.K.+.L.M.N.O.P.Q.R.S.T.U.V.W.W X.Y.Z.`. +b .+++@+#+$+",
"%+&+*+=+-+;+>+,+l.'+)+!+~+{+]+^+/+W.(+_+:+<+[+} }+|+1+2+3+4+",
"5+6+7+8+9+0+:+a+b+_.c+d+e+f+g+h+i+j+(+k+l+m+n+o+W.> p+q+r+s+",
"t+u+v+w+x+y+z+* A+f B+C+D+E+F+G+H+F+I+J+;+K+L+M+N+O+; 5 |+P+",
"Q+R+7+S+T+m U+V+y+W+!+X+Y+Z+}.`+ @.@+@@@#@$@%@&@*@=@= -@$ ;@",
">@,@'@)@!@E ~@{@]@^@/@(@_@:@<@:+[@4 4 }@|@1@2@3@4@5@6@7@8@z+",
"9@0@a@b@c@d@e@f@Y g@h@i@j@k@l@; m@P+P+n@}@o@p@q@r@s@t@u@b+= ",
"v@w@x@y@z@A@B@C@e@D@*@E@F@G@. |+n@H@I@s+J@K@b Z.L@M@N@O@P@Q@",
"R@S@S@T@U@V@4 {@J@W@g@X@Y@Z@`@P+r+ #.#+#@###$#%#M@&#*#=#b+-#",
";#>#,#'#)#!#m@1+~#{#]#^#o@`+4 P+s+/#(#_#:#<#[#}#A |#@ 8@1#N@",
"2#3#4#5#6#m@q+H@7#8#P+m@m@m@P+P+I@9#0#a#b#c#d#e#n f#3 ]@+@g#",
"h#i#j#[@k#P+1+s+l#l#m#C@q+m@P+P+n#o#p#^+q#r#s#t#u#v#w#x#y#z#",
"A#p+P+B#k#|+B#1+ #C#D#E#r+n@p+4 n@s+F#G#H#I#J#K#L#M#K+N#9 *#",
"A#P+P+}@j#O#[@}@P#.#Q#.#R#P#p+% 5 B#r+.#S#T#U#V#W#X#Y#Z#`#M@",
"Y  $m@.$+$@$- * #$m#D#$$%$&$P+*$z#=$B@n#-$;$>$,$'$)$!$~${$]$",
"^$|+% g#/$($_$(+:$P+H@h+<$[$}$|$1$8@* [@U+2$3$4$5$6$7$8$9$0$",
"a$]@!#b$c$c+d$e$f$g$C@h+h$^+i$j$A k$l$m$n$W@o$Z@y#m@B@2#p$q$",
"M@r$+ s$_$t$u$v$N#U+1+w$x$y$z$A$B$6.u@C$D$+ E$$ 5 P+p+e@F$G$",
"H$b$+ z#}.Q.I$J$K$L$M$N$D#O$P$Q$R$X.S$T$U$V$W$X$% P+p+~@Y$Z$",
"`$ %.%6#:++%@%#%$%%%~@&%*%H@n#=%-%;%>%,%'%)%/$!%W$|+4 -@U$`.",
"~%{%`.p$]%;%^%/%(%_%:%<%`+}@B#m@O#r$[%}%|%1%2%Q.3%-@% 4%5%6%",
"7%8%9%T$;%0%a%&.b%c%d%e%(+f%<%g%g%h%i%z#j%k%l%m%n%o%& 4 p%q%",
"r%s%t%u%v%Z$8@g#w%x%y%z%A%B%C%D%E%F%o%K@6 l+G%H%I%J%K%q+4 L%",
"M%N%O%P%Q%R%S%@ T%B$U%V%W%X%Y%Z%`% &.&+&X$}+;+@&#&$&K%1+m@%&"};
